<mxfile host="Electron" modified="2023-07-06T16:22:38.164Z" agent="Mozilla/5.0 (Windows NT 10.0; Win64; x64) AppleWebKit/537.36 (KHTML, like Gecko) draw.io/21.6.1 Chrome/112.0.5615.204 Electron/24.6.1 Safari/537.36" etag="8hN2RZMZ4oqBDZRsWhHK" version="21.6.1" type="device">
  <diagram name="Page-1" id="t_nLvd7C71P4NczTkx_o">
    <mxGraphModel dx="5220" dy="1125" grid="1" gridSize="10" guides="1" tooltips="1" connect="1" arrows="1" fold="1" page="1" pageScale="1" pageWidth="827" pageHeight="1169" math="0" shadow="0">
      <root>
        <mxCell id="0" />
        <mxCell id="1" parent="0" />
        <mxCell id="TFecB4w0ay9IWsotAcAq-8" style="edgeStyle=orthogonalEdgeStyle;rounded=0;orthogonalLoop=1;jettySize=auto;html=1;" parent="1" source="TFecB4w0ay9IWsotAcAq-1" target="vL9jdoZXsRcYpbfHNgrs-1" edge="1">
          <mxGeometry relative="1" as="geometry">
            <mxPoint x="390" y="200" as="targetPoint" />
          </mxGeometry>
        </mxCell>
        <mxCell id="vL9jdoZXsRcYpbfHNgrs-84" style="edgeStyle=orthogonalEdgeStyle;rounded=0;orthogonalLoop=1;jettySize=auto;html=1;exitX=0.25;exitY=1;exitDx=0;exitDy=0;entryX=0.5;entryY=0;entryDx=0;entryDy=0;" edge="1" parent="1" source="TFecB4w0ay9IWsotAcAq-1" target="vL9jdoZXsRcYpbfHNgrs-81">
          <mxGeometry relative="1" as="geometry" />
        </mxCell>
        <mxCell id="vL9jdoZXsRcYpbfHNgrs-90" style="edgeStyle=orthogonalEdgeStyle;rounded=0;orthogonalLoop=1;jettySize=auto;html=1;exitX=0.75;exitY=1;exitDx=0;exitDy=0;entryX=0.5;entryY=0;entryDx=0;entryDy=0;" edge="1" parent="1" source="TFecB4w0ay9IWsotAcAq-1" target="vL9jdoZXsRcYpbfHNgrs-85">
          <mxGeometry relative="1" as="geometry" />
        </mxCell>
        <mxCell id="TFecB4w0ay9IWsotAcAq-1" value="&lt;h1&gt;Application&lt;/h1&gt;&lt;div&gt;(https://github.com/michalosman/cv-application/tree/main)&lt;/div&gt;" style="rounded=0;whiteSpace=wrap;html=1;" parent="1" vertex="1">
          <mxGeometry x="190" width="260" height="130" as="geometry" />
        </mxCell>
        <mxCell id="vL9jdoZXsRcYpbfHNgrs-11" style="edgeStyle=orthogonalEdgeStyle;rounded=0;orthogonalLoop=1;jettySize=auto;html=1;exitX=0.25;exitY=1;exitDx=0;exitDy=0;entryX=0.5;entryY=0;entryDx=0;entryDy=0;" edge="1" parent="1" source="TFecB4w0ay9IWsotAcAq-3" target="vL9jdoZXsRcYpbfHNgrs-9">
          <mxGeometry relative="1" as="geometry" />
        </mxCell>
        <mxCell id="vL9jdoZXsRcYpbfHNgrs-12" style="edgeStyle=orthogonalEdgeStyle;rounded=0;orthogonalLoop=1;jettySize=auto;html=1;exitX=0.75;exitY=1;exitDx=0;exitDy=0;entryX=0.5;entryY=0;entryDx=0;entryDy=0;" edge="1" parent="1" source="TFecB4w0ay9IWsotAcAq-3" target="vL9jdoZXsRcYpbfHNgrs-10">
          <mxGeometry relative="1" as="geometry" />
        </mxCell>
        <mxCell id="TFecB4w0ay9IWsotAcAq-3" value="&lt;font style=&quot;font-size: 24px;&quot;&gt;Main (cust)&lt;/font&gt;&lt;br&gt;&lt;font style=&quot;font-size: 14px;&quot;&gt;&lt;b&gt;Module imports:&amp;nbsp;&lt;br&gt;&lt;/b&gt;&lt;span style=&quot;border-color: var(--border-color); font-size: 12px;&quot;&gt;&lt;b&gt;util -&lt;/b&gt;&lt;br&gt;exampleCV, EmptyCV&lt;br style=&quot;border-color: var(--border-color);&quot;&gt;&lt;b&gt;&amp;nbsp;custom component -&lt;br&gt;&lt;/b&gt;CVForm, CVPreview&amp;nbsp;&lt;br style=&quot;border-color: var(--border-color);&quot;&gt;&lt;b&gt;npm package&lt;/b&gt;&lt;/span&gt;&lt;b&gt;&lt;br&gt;&lt;/b&gt;&lt;/font&gt;Styled,&amp;nbsp;&lt;br&gt;&lt;font style=&quot;font-size: 14px;&quot;&gt;&lt;b&gt;Props&lt;/b&gt;&lt;/font&gt;:&lt;br&gt;None&lt;br&gt;&lt;font style=&quot;font-size: 14px;&quot;&gt;&lt;b&gt;State:&lt;br&gt;&lt;/b&gt;&lt;/font&gt;cv object&lt;br&gt;&lt;font style=&quot;font-size: 14px;&quot;&gt;&lt;b&gt;Handler functions:&lt;br&gt;&lt;/b&gt;&lt;/font&gt;ChangePersonal, ChangeExperience, AddExperience, DeleteExperience, ChangeEducation, AddEducation, DeleteEducation, Print, LoadExample, Reset" style="rounded=0;whiteSpace=wrap;html=1;align=center;" parent="1" vertex="1">
          <mxGeometry x="155" y="210" width="330" height="290" as="geometry" />
        </mxCell>
        <mxCell id="TFecB4w0ay9IWsotAcAq-13" value="&lt;div style=&quot;border-color: var(--border-color); color: rgb(204, 204, 204); font-family: Menlo, Monaco, &amp;quot;Courier New&amp;quot;, monospace; font-size: 12px; font-style: normal; font-variant-ligatures: normal; font-variant-caps: normal; font-weight: 400; letter-spacing: normal; orphans: 2; text-align: left; text-indent: 0px; text-transform: none; widows: 2; word-spacing: 0px; -webkit-text-stroke-width: 0px; text-decoration-thickness: initial; text-decoration-style: initial; text-decoration-color: initial;&quot;&gt;&lt;span style=&quot;border-color: var(--border-color); color: rgb(86, 156, 214);&quot;&gt;CV state object&lt;/span&gt;&lt;/div&gt;&lt;div style=&quot;border-color: var(--border-color); color: rgb(204, 204, 204); font-family: Menlo, Monaco, &amp;quot;Courier New&amp;quot;, monospace; font-size: 12px; font-style: normal; font-variant-ligatures: normal; font-variant-caps: normal; font-weight: 400; letter-spacing: normal; orphans: 2; text-align: left; text-indent: 0px; text-transform: none; widows: 2; word-spacing: 0px; -webkit-text-stroke-width: 0px; text-decoration-thickness: initial; text-decoration-style: initial; text-decoration-color: initial;&quot;&gt;&lt;span style=&quot;border-color: var(--border-color); color: rgb(86, 156, 214);&quot;&gt;&lt;br&gt;&lt;/span&gt;&lt;/div&gt;&lt;div style=&quot;border-color: var(--border-color); color: rgb(204, 204, 204); font-family: Menlo, Monaco, &amp;quot;Courier New&amp;quot;, monospace; font-size: 12px; font-style: normal; font-variant-ligatures: normal; font-variant-caps: normal; font-weight: 400; letter-spacing: normal; orphans: 2; text-align: left; text-indent: 0px; text-transform: none; widows: 2; word-spacing: 0px; -webkit-text-stroke-width: 0px; text-decoration-thickness: initial; text-decoration-style: initial; text-decoration-color: initial;&quot;&gt;&lt;span style=&quot;border-color: var(--border-color); color: rgb(86, 156, 214);&quot;&gt;const&lt;/span&gt;&lt;span style=&quot;border-color: var(--border-color); color: rgb(204, 204, 204);&quot;&gt;&lt;span&gt;&amp;nbsp;&lt;/span&gt;&lt;/span&gt;&lt;span style=&quot;border-color: var(--border-color); color: rgb(79, 193, 255);&quot;&gt;exampleCV&lt;/span&gt;&lt;span style=&quot;border-color: var(--border-color); color: rgb(204, 204, 204);&quot;&gt;&lt;span&gt;&amp;nbsp;&lt;/span&gt;&lt;/span&gt;&lt;span style=&quot;border-color: var(--border-color); color: rgb(212, 212, 212);&quot;&gt;=&lt;/span&gt;&lt;span style=&quot;border-color: var(--border-color); color: rgb(204, 204, 204);&quot;&gt;&lt;span&gt;&amp;nbsp;&lt;/span&gt;{&lt;/span&gt;&lt;/div&gt;&lt;div style=&quot;border-color: var(--border-color); color: rgb(204, 204, 204); font-family: Menlo, Monaco, &amp;quot;Courier New&amp;quot;, monospace; font-size: 12px; font-style: normal; font-variant-ligatures: normal; font-variant-caps: normal; font-weight: 400; letter-spacing: normal; orphans: 2; text-align: left; text-indent: 0px; text-transform: none; widows: 2; word-spacing: 0px; -webkit-text-stroke-width: 0px; text-decoration-thickness: initial; text-decoration-style: initial; text-decoration-color: initial;&quot;&gt;&lt;span style=&quot;border-color: var(--border-color); color: rgb(204, 204, 204);&quot;&gt;&lt;/span&gt;&lt;span style=&quot;border-color: var(--border-color); color: rgb(156, 220, 254);&quot;&gt;personalInfo&lt;/span&gt;&lt;span style=&quot;border-color: var(--border-color); color: rgb(156, 220, 254);&quot;&gt;:&lt;/span&gt;&lt;span style=&quot;border-color: var(--border-color); color: rgb(204, 204, 204);&quot;&gt;&lt;span&gt;&amp;nbsp;&lt;/span&gt;{&lt;/span&gt;&lt;/div&gt;&lt;div style=&quot;border-color: var(--border-color); color: rgb(204, 204, 204); font-family: Menlo, Monaco, &amp;quot;Courier New&amp;quot;, monospace; font-size: 12px; font-style: normal; font-variant-ligatures: normal; font-variant-caps: normal; font-weight: 400; letter-spacing: normal; orphans: 2; text-align: left; text-indent: 0px; text-transform: none; widows: 2; word-spacing: 0px; -webkit-text-stroke-width: 0px; text-decoration-thickness: initial; text-decoration-style: initial; text-decoration-color: initial;&quot;&gt;&lt;span style=&quot;border-color: var(--border-color); color: rgb(204, 204, 204);&quot;&gt;&lt;/span&gt;&lt;span style=&quot;border-color: var(--border-color); color: rgb(156, 220, 254);&quot;&gt;firstName&lt;/span&gt;&lt;span style=&quot;border-color: var(--border-color); color: rgb(156, 220, 254);&quot;&gt;:&lt;/span&gt;&lt;span style=&quot;border-color: var(--border-color); color: rgb(204, 204, 204);&quot;&gt;&lt;span&gt;&amp;nbsp;&lt;/span&gt;&lt;/span&gt;&lt;span style=&quot;border-color: var(--border-color); color: rgb(206, 145, 120);&quot;&gt;&quot;&quot;&lt;/span&gt;&lt;span style=&quot;border-color: var(--border-color); color: rgb(204, 204, 204);&quot;&gt;,&lt;/span&gt;&lt;/div&gt;&lt;div style=&quot;border-color: var(--border-color); color: rgb(204, 204, 204); font-family: Menlo, Monaco, &amp;quot;Courier New&amp;quot;, monospace; font-size: 12px; font-style: normal; font-variant-ligatures: normal; font-variant-caps: normal; font-weight: 400; letter-spacing: normal; orphans: 2; text-align: left; text-indent: 0px; text-transform: none; widows: 2; word-spacing: 0px; -webkit-text-stroke-width: 0px; text-decoration-thickness: initial; text-decoration-style: initial; text-decoration-color: initial;&quot;&gt;&lt;span style=&quot;border-color: var(--border-color); color: rgb(204, 204, 204);&quot;&gt;&lt;/span&gt;&lt;span style=&quot;border-color: var(--border-color); color: rgb(156, 220, 254);&quot;&gt;lastName&lt;/span&gt;&lt;span style=&quot;border-color: var(--border-color); color: rgb(156, 220, 254);&quot;&gt;:&lt;/span&gt;&lt;span style=&quot;border-color: var(--border-color); color: rgb(204, 204, 204);&quot;&gt;&lt;span&gt;&amp;nbsp;&lt;/span&gt;&lt;/span&gt;&lt;span style=&quot;border-color: var(--border-color); color: rgb(206, 145, 120);&quot;&gt;&quot;&quot;&lt;/span&gt;&lt;span style=&quot;border-color: var(--border-color); color: rgb(204, 204, 204);&quot;&gt;,&lt;/span&gt;&lt;/div&gt;&lt;div style=&quot;border-color: var(--border-color); color: rgb(204, 204, 204); font-family: Menlo, Monaco, &amp;quot;Courier New&amp;quot;, monospace; font-size: 12px; font-style: normal; font-variant-ligatures: normal; font-variant-caps: normal; font-weight: 400; letter-spacing: normal; orphans: 2; text-align: left; text-indent: 0px; text-transform: none; widows: 2; word-spacing: 0px; -webkit-text-stroke-width: 0px; text-decoration-thickness: initial; text-decoration-style: initial; text-decoration-color: initial;&quot;&gt;&lt;span style=&quot;border-color: var(--border-color); color: rgb(204, 204, 204);&quot;&gt;&lt;/span&gt;&lt;span style=&quot;border-color: var(--border-color); color: rgb(156, 220, 254);&quot;&gt;title&lt;/span&gt;&lt;span style=&quot;border-color: var(--border-color); color: rgb(156, 220, 254);&quot;&gt;:&lt;/span&gt;&lt;span style=&quot;border-color: var(--border-color); color: rgb(204, 204, 204);&quot;&gt;&lt;span&gt;&amp;nbsp;&lt;/span&gt;&lt;/span&gt;&lt;span style=&quot;border-color: var(--border-color); color: rgb(206, 145, 120);&quot;&gt;&quot;&quot;&lt;/span&gt;&lt;span style=&quot;border-color: var(--border-color); color: rgb(204, 204, 204);&quot;&gt;,&lt;/span&gt;&lt;/div&gt;&lt;div style=&quot;border-color: var(--border-color); color: rgb(204, 204, 204); font-family: Menlo, Monaco, &amp;quot;Courier New&amp;quot;, monospace; font-size: 12px; font-style: normal; font-variant-ligatures: normal; font-variant-caps: normal; font-weight: 400; letter-spacing: normal; orphans: 2; text-align: left; text-indent: 0px; text-transform: none; widows: 2; word-spacing: 0px; -webkit-text-stroke-width: 0px; text-decoration-thickness: initial; text-decoration-style: initial; text-decoration-color: initial;&quot;&gt;&lt;span style=&quot;border-color: var(--border-color); color: rgb(204, 204, 204);&quot;&gt;&lt;/span&gt;&lt;span style=&quot;border-color: var(--border-color); color: rgb(156, 220, 254);&quot;&gt;photo&lt;/span&gt;&lt;span style=&quot;border-color: var(--border-color); color: rgb(156, 220, 254);&quot;&gt;:&lt;/span&gt;&lt;span style=&quot;border-color: var(--border-color); color: rgb(204, 204, 204);&quot;&gt;&lt;span&gt;&amp;nbsp;&lt;/span&gt;&lt;/span&gt;&lt;span style=&quot;border-color: var(--border-color); color: rgb(156, 220, 254);&quot;&gt;emptyAvatar&lt;/span&gt;&lt;span style=&quot;border-color: var(--border-color); color: rgb(204, 204, 204);&quot;&gt;,&lt;/span&gt;&lt;/div&gt;&lt;div style=&quot;border-color: var(--border-color); color: rgb(204, 204, 204); font-family: Menlo, Monaco, &amp;quot;Courier New&amp;quot;, monospace; font-size: 12px; font-style: normal; font-variant-ligatures: normal; font-variant-caps: normal; font-weight: 400; letter-spacing: normal; orphans: 2; text-align: left; text-indent: 0px; text-transform: none; widows: 2; word-spacing: 0px; -webkit-text-stroke-width: 0px; text-decoration-thickness: initial; text-decoration-style: initial; text-decoration-color: initial;&quot;&gt;&lt;span style=&quot;border-color: var(--border-color); color: rgb(204, 204, 204);&quot;&gt;&lt;/span&gt;&lt;span style=&quot;border-color: var(--border-color); color: rgb(156, 220, 254);&quot;&gt;address&lt;/span&gt;&lt;span style=&quot;border-color: var(--border-color); color: rgb(156, 220, 254);&quot;&gt;:&lt;/span&gt;&lt;span style=&quot;border-color: var(--border-color); color: rgb(204, 204, 204);&quot;&gt;&lt;span&gt;&amp;nbsp;&lt;/span&gt;&lt;/span&gt;&lt;span style=&quot;border-color: var(--border-color); color: rgb(206, 145, 120);&quot;&gt;&quot;&quot;&lt;/span&gt;&lt;span style=&quot;border-color: var(--border-color); color: rgb(204, 204, 204);&quot;&gt;,&lt;/span&gt;&lt;/div&gt;&lt;div style=&quot;border-color: var(--border-color); color: rgb(204, 204, 204); font-family: Menlo, Monaco, &amp;quot;Courier New&amp;quot;, monospace; font-size: 12px; font-style: normal; font-variant-ligatures: normal; font-variant-caps: normal; font-weight: 400; letter-spacing: normal; orphans: 2; text-align: left; text-indent: 0px; text-transform: none; widows: 2; word-spacing: 0px; -webkit-text-stroke-width: 0px; text-decoration-thickness: initial; text-decoration-style: initial; text-decoration-color: initial;&quot;&gt;&lt;span style=&quot;border-color: var(--border-color); color: rgb(204, 204, 204);&quot;&gt;&lt;/span&gt;&lt;span style=&quot;border-color: var(--border-color); color: rgb(156, 220, 254);&quot;&gt;phoneNumber&lt;/span&gt;&lt;span style=&quot;border-color: var(--border-color); color: rgb(156, 220, 254);&quot;&gt;:&lt;/span&gt;&lt;span style=&quot;border-color: var(--border-color); color: rgb(204, 204, 204);&quot;&gt;&lt;span&gt;&amp;nbsp;&lt;/span&gt;&lt;/span&gt;&lt;span style=&quot;border-color: var(--border-color); color: rgb(206, 145, 120);&quot;&gt;&quot;&quot;&lt;/span&gt;&lt;span style=&quot;border-color: var(--border-color); color: rgb(204, 204, 204);&quot;&gt;,&lt;/span&gt;&lt;/div&gt;&lt;div style=&quot;border-color: var(--border-color); color: rgb(204, 204, 204); font-family: Menlo, Monaco, &amp;quot;Courier New&amp;quot;, monospace; font-size: 12px; font-style: normal; font-variant-ligatures: normal; font-variant-caps: normal; font-weight: 400; letter-spacing: normal; orphans: 2; text-align: left; text-indent: 0px; text-transform: none; widows: 2; word-spacing: 0px; -webkit-text-stroke-width: 0px; text-decoration-thickness: initial; text-decoration-style: initial; text-decoration-color: initial;&quot;&gt;&lt;span style=&quot;border-color: var(--border-color); color: rgb(204, 204, 204);&quot;&gt;&lt;/span&gt;&lt;span style=&quot;border-color: var(--border-color); color: rgb(156, 220, 254);&quot;&gt;email&lt;/span&gt;&lt;span style=&quot;border-color: var(--border-color); color: rgb(156, 220, 254);&quot;&gt;:&lt;/span&gt;&lt;span style=&quot;border-color: var(--border-color); color: rgb(204, 204, 204);&quot;&gt;&lt;span&gt;&amp;nbsp;&lt;/span&gt;&lt;/span&gt;&lt;span style=&quot;border-color: var(--border-color); color: rgb(206, 145, 120);&quot;&gt;&quot;&quot;&lt;/span&gt;&lt;span style=&quot;border-color: var(--border-color); color: rgb(204, 204, 204);&quot;&gt;,&lt;/span&gt;&lt;/div&gt;&lt;div style=&quot;border-color: var(--border-color); color: rgb(204, 204, 204); font-family: Menlo, Monaco, &amp;quot;Courier New&amp;quot;, monospace; font-size: 12px; font-style: normal; font-variant-ligatures: normal; font-variant-caps: normal; font-weight: 400; letter-spacing: normal; orphans: 2; text-align: left; text-indent: 0px; text-transform: none; widows: 2; word-spacing: 0px; -webkit-text-stroke-width: 0px; text-decoration-thickness: initial; text-decoration-style: initial; text-decoration-color: initial;&quot;&gt;&lt;span style=&quot;border-color: var(--border-color); color: rgb(204, 204, 204);&quot;&gt;&lt;/span&gt;&lt;span style=&quot;border-color: var(--border-color); color: rgb(156, 220, 254);&quot;&gt;description&lt;/span&gt;&lt;span style=&quot;border-color: var(--border-color); color: rgb(156, 220, 254);&quot;&gt;:&lt;/span&gt;&lt;span style=&quot;border-color: var(--border-color); color: rgb(204, 204, 204);&quot;&gt;&lt;span&gt;&amp;nbsp;&lt;/span&gt;&lt;/span&gt;&lt;span style=&quot;border-color: var(--border-color); color: rgb(206, 145, 120);&quot;&gt;&quot;&quot;&lt;/span&gt;&lt;span style=&quot;border-color: var(--border-color); color: rgb(204, 204, 204);&quot;&gt;,&lt;/span&gt;&lt;/div&gt;&lt;div style=&quot;border-color: var(--border-color); color: rgb(204, 204, 204); font-family: Menlo, Monaco, &amp;quot;Courier New&amp;quot;, monospace; font-size: 12px; font-style: normal; font-variant-ligatures: normal; font-variant-caps: normal; font-weight: 400; letter-spacing: normal; orphans: 2; text-align: left; text-indent: 0px; text-transform: none; widows: 2; word-spacing: 0px; -webkit-text-stroke-width: 0px; text-decoration-thickness: initial; text-decoration-style: initial; text-decoration-color: initial;&quot;&gt;&lt;span style=&quot;border-color: var(--border-color); color: rgb(204, 204, 204);&quot;&gt;},&lt;/span&gt;&lt;/div&gt;&lt;div style=&quot;border-color: var(--border-color); color: rgb(204, 204, 204); font-family: Menlo, Monaco, &amp;quot;Courier New&amp;quot;, monospace; font-size: 12px; font-style: normal; font-variant-ligatures: normal; font-variant-caps: normal; font-weight: 400; letter-spacing: normal; orphans: 2; text-align: left; text-indent: 0px; text-transform: none; widows: 2; word-spacing: 0px; -webkit-text-stroke-width: 0px; text-decoration-thickness: initial; text-decoration-style: initial; text-decoration-color: initial;&quot;&gt;&lt;span style=&quot;border-color: var(--border-color); color: rgb(204, 204, 204);&quot;&gt;&lt;/span&gt;&lt;span style=&quot;border-color: var(--border-color); color: rgb(156, 220, 254);&quot;&gt;experience&lt;/span&gt;&lt;span style=&quot;border-color: var(--border-color); color: rgb(156, 220, 254);&quot;&gt;:&lt;/span&gt;&lt;span style=&quot;border-color: var(--border-color); color: rgb(204, 204, 204);&quot;&gt;&lt;span&gt;&amp;nbsp;&lt;/span&gt;[&lt;/span&gt;&lt;/div&gt;&lt;div style=&quot;border-color: var(--border-color); color: rgb(204, 204, 204); font-family: Menlo, Monaco, &amp;quot;Courier New&amp;quot;, monospace; font-size: 12px; font-style: normal; font-variant-ligatures: normal; font-variant-caps: normal; font-weight: 400; letter-spacing: normal; orphans: 2; text-align: left; text-indent: 0px; text-transform: none; widows: 2; word-spacing: 0px; -webkit-text-stroke-width: 0px; text-decoration-thickness: initial; text-decoration-style: initial; text-decoration-color: initial;&quot;&gt;&lt;span style=&quot;border-color: var(--border-color); color: rgb(204, 204, 204);&quot;&gt;{&lt;/span&gt;&lt;/div&gt;&lt;div style=&quot;border-color: var(--border-color); color: rgb(204, 204, 204); font-family: Menlo, Monaco, &amp;quot;Courier New&amp;quot;, monospace; font-size: 12px; font-style: normal; font-variant-ligatures: normal; font-variant-caps: normal; font-weight: 400; letter-spacing: normal; orphans: 2; text-align: left; text-indent: 0px; text-transform: none; widows: 2; word-spacing: 0px; -webkit-text-stroke-width: 0px; text-decoration-thickness: initial; text-decoration-style: initial; text-decoration-color: initial;&quot;&gt;&lt;span style=&quot;border-color: var(--border-color); color: rgb(204, 204, 204);&quot;&gt;&lt;/span&gt;&lt;span style=&quot;border-color: var(--border-color); color: rgb(156, 220, 254);&quot;&gt;id&lt;/span&gt;&lt;span style=&quot;border-color: var(--border-color); color: rgb(156, 220, 254);&quot;&gt;:&lt;/span&gt;&lt;span style=&quot;border-color: var(--border-color); color: rgb(204, 204, 204);&quot;&gt;&lt;span&gt;&amp;nbsp;&lt;/span&gt;&lt;/span&gt;&lt;span style=&quot;border-color: var(--border-color); color: rgb(220, 220, 170);&quot;&gt;uuidv4&lt;/span&gt;&lt;span style=&quot;border-color: var(--border-color); color: rgb(204, 204, 204);&quot;&gt;(),&lt;/span&gt;&lt;/div&gt;&lt;div style=&quot;border-color: var(--border-color); color: rgb(204, 204, 204); font-family: Menlo, Monaco, &amp;quot;Courier New&amp;quot;, monospace; font-size: 12px; font-style: normal; font-variant-ligatures: normal; font-variant-caps: normal; font-weight: 400; letter-spacing: normal; orphans: 2; text-align: left; text-indent: 0px; text-transform: none; widows: 2; word-spacing: 0px; -webkit-text-stroke-width: 0px; text-decoration-thickness: initial; text-decoration-style: initial; text-decoration-color: initial;&quot;&gt;&lt;span style=&quot;border-color: var(--border-color); color: rgb(204, 204, 204);&quot;&gt;&lt;/span&gt;&lt;span style=&quot;border-color: var(--border-color); color: rgb(156, 220, 254);&quot;&gt;position&lt;/span&gt;&lt;span style=&quot;border-color: var(--border-color); color: rgb(156, 220, 254);&quot;&gt;:&lt;/span&gt;&lt;span style=&quot;border-color: var(--border-color); color: rgb(204, 204, 204);&quot;&gt;&lt;span&gt;&amp;nbsp;&lt;/span&gt;&lt;/span&gt;&lt;span style=&quot;border-color: var(--border-color); color: rgb(206, 145, 120);&quot;&gt;&quot;&quot;&lt;/span&gt;&lt;span style=&quot;border-color: var(--border-color); color: rgb(204, 204, 204);&quot;&gt;,&lt;/span&gt;&lt;/div&gt;&lt;div style=&quot;border-color: var(--border-color); color: rgb(204, 204, 204); font-family: Menlo, Monaco, &amp;quot;Courier New&amp;quot;, monospace; font-size: 12px; font-style: normal; font-variant-ligatures: normal; font-variant-caps: normal; font-weight: 400; letter-spacing: normal; orphans: 2; text-align: left; text-indent: 0px; text-transform: none; widows: 2; word-spacing: 0px; -webkit-text-stroke-width: 0px; text-decoration-thickness: initial; text-decoration-style: initial; text-decoration-color: initial;&quot;&gt;&lt;span style=&quot;border-color: var(--border-color); color: rgb(204, 204, 204);&quot;&gt;&lt;/span&gt;&lt;span style=&quot;border-color: var(--border-color); color: rgb(156, 220, 254);&quot;&gt;company&lt;/span&gt;&lt;span style=&quot;border-color: var(--border-color); color: rgb(156, 220, 254);&quot;&gt;:&lt;/span&gt;&lt;span style=&quot;border-color: var(--border-color); color: rgb(204, 204, 204);&quot;&gt;&lt;span&gt;&amp;nbsp;&lt;/span&gt;&lt;/span&gt;&lt;span style=&quot;border-color: var(--border-color); color: rgb(206, 145, 120);&quot;&gt;&quot;&quot;&lt;/span&gt;&lt;span style=&quot;border-color: var(--border-color); color: rgb(204, 204, 204);&quot;&gt;,&lt;/span&gt;&lt;/div&gt;&lt;div style=&quot;border-color: var(--border-color); color: rgb(204, 204, 204); font-family: Menlo, Monaco, &amp;quot;Courier New&amp;quot;, monospace; font-size: 12px; font-style: normal; font-variant-ligatures: normal; font-variant-caps: normal; font-weight: 400; letter-spacing: normal; orphans: 2; text-align: left; text-indent: 0px; text-transform: none; widows: 2; word-spacing: 0px; -webkit-text-stroke-width: 0px; text-decoration-thickness: initial; text-decoration-style: initial; text-decoration-color: initial;&quot;&gt;&lt;span style=&quot;border-color: var(--border-color); color: rgb(204, 204, 204);&quot;&gt;&lt;/span&gt;&lt;span style=&quot;border-color: var(--border-color); color: rgb(156, 220, 254);&quot;&gt;city&lt;/span&gt;&lt;span style=&quot;border-color: var(--border-color); color: rgb(156, 220, 254);&quot;&gt;:&lt;/span&gt;&lt;span style=&quot;border-color: var(--border-color); color: rgb(204, 204, 204);&quot;&gt;&lt;span&gt;&amp;nbsp;&lt;/span&gt;&lt;/span&gt;&lt;span style=&quot;border-color: var(--border-color); color: rgb(206, 145, 120);&quot;&gt;&quot;&quot;&lt;/span&gt;&lt;span style=&quot;border-color: var(--border-color); color: rgb(204, 204, 204);&quot;&gt;,&lt;/span&gt;&lt;/div&gt;&lt;div style=&quot;border-color: var(--border-color); color: rgb(204, 204, 204); font-family: Menlo, Monaco, &amp;quot;Courier New&amp;quot;, monospace; font-size: 12px; font-style: normal; font-variant-ligatures: normal; font-variant-caps: normal; font-weight: 400; letter-spacing: normal; orphans: 2; text-align: left; text-indent: 0px; text-transform: none; widows: 2; word-spacing: 0px; -webkit-text-stroke-width: 0px; text-decoration-thickness: initial; text-decoration-style: initial; text-decoration-color: initial;&quot;&gt;&lt;span style=&quot;border-color: var(--border-color); color: rgb(204, 204, 204);&quot;&gt;&lt;/span&gt;&lt;span style=&quot;border-color: var(--border-color); color: rgb(156, 220, 254);&quot;&gt;from&lt;/span&gt;&lt;span style=&quot;border-color: var(--border-color); color: rgb(156, 220, 254);&quot;&gt;:&lt;/span&gt;&lt;span style=&quot;border-color: var(--border-color); color: rgb(204, 204, 204);&quot;&gt;&lt;span&gt;&amp;nbsp;&lt;/span&gt;&lt;/span&gt;&lt;span style=&quot;border-color: var(--border-color); color: rgb(206, 145, 120);&quot;&gt;&quot;&quot;&lt;/span&gt;&lt;span style=&quot;border-color: var(--border-color); color: rgb(204, 204, 204);&quot;&gt;,&lt;/span&gt;&lt;/div&gt;&lt;div style=&quot;border-color: var(--border-color); color: rgb(204, 204, 204); font-family: Menlo, Monaco, &amp;quot;Courier New&amp;quot;, monospace; font-size: 12px; font-style: normal; font-variant-ligatures: normal; font-variant-caps: normal; font-weight: 400; letter-spacing: normal; orphans: 2; text-align: left; text-indent: 0px; text-transform: none; widows: 2; word-spacing: 0px; -webkit-text-stroke-width: 0px; text-decoration-thickness: initial; text-decoration-style: initial; text-decoration-color: initial;&quot;&gt;&lt;span style=&quot;border-color: var(--border-color); color: rgb(204, 204, 204);&quot;&gt;&lt;/span&gt;&lt;span style=&quot;border-color: var(--border-color); color: rgb(156, 220, 254);&quot;&gt;to&lt;/span&gt;&lt;span style=&quot;border-color: var(--border-color); color: rgb(156, 220, 254);&quot;&gt;:&lt;/span&gt;&lt;span style=&quot;border-color: var(--border-color); color: rgb(204, 204, 204);&quot;&gt;&lt;span&gt;&amp;nbsp;&lt;/span&gt;&lt;/span&gt;&lt;span style=&quot;border-color: var(--border-color); color: rgb(206, 145, 120);&quot;&gt;&quot;&quot;&lt;/span&gt;&lt;span style=&quot;border-color: var(--border-color); color: rgb(204, 204, 204);&quot;&gt;,&lt;/span&gt;&lt;/div&gt;&lt;div style=&quot;border-color: var(--border-color); color: rgb(204, 204, 204); font-family: Menlo, Monaco, &amp;quot;Courier New&amp;quot;, monospace; font-size: 12px; font-style: normal; font-variant-ligatures: normal; font-variant-caps: normal; font-weight: 400; letter-spacing: normal; orphans: 2; text-align: left; text-indent: 0px; text-transform: none; widows: 2; word-spacing: 0px; -webkit-text-stroke-width: 0px; text-decoration-thickness: initial; text-decoration-style: initial; text-decoration-color: initial;&quot;&gt;&lt;span style=&quot;border-color: var(--border-color); color: rgb(204, 204, 204);&quot;&gt;},&lt;/span&gt;&lt;/div&gt;&lt;div style=&quot;border-color: var(--border-color); color: rgb(204, 204, 204); font-family: Menlo, Monaco, &amp;quot;Courier New&amp;quot;, monospace; font-size: 12px; font-style: normal; font-variant-ligatures: normal; font-variant-caps: normal; font-weight: 400; letter-spacing: normal; orphans: 2; text-align: left; text-indent: 0px; text-transform: none; widows: 2; word-spacing: 0px; -webkit-text-stroke-width: 0px; text-decoration-thickness: initial; text-decoration-style: initial; text-decoration-color: initial;&quot;&gt;&lt;span style=&quot;border-color: var(--border-color); color: rgb(204, 204, 204);&quot;&gt;],&lt;/span&gt;&lt;/div&gt;&lt;div style=&quot;border-color: var(--border-color); color: rgb(204, 204, 204); font-family: Menlo, Monaco, &amp;quot;Courier New&amp;quot;, monospace; font-size: 12px; font-style: normal; font-variant-ligatures: normal; font-variant-caps: normal; font-weight: 400; letter-spacing: normal; orphans: 2; text-align: left; text-indent: 0px; text-transform: none; widows: 2; word-spacing: 0px; -webkit-text-stroke-width: 0px; text-decoration-thickness: initial; text-decoration-style: initial; text-decoration-color: initial;&quot;&gt;&lt;span style=&quot;border-color: var(--border-color); color: rgb(204, 204, 204);&quot;&gt;&lt;/span&gt;&lt;span style=&quot;border-color: var(--border-color); color: rgb(156, 220, 254);&quot;&gt;education&lt;/span&gt;&lt;span style=&quot;border-color: var(--border-color); color: rgb(156, 220, 254);&quot;&gt;:&lt;/span&gt;&lt;span style=&quot;border-color: var(--border-color); color: rgb(204, 204, 204);&quot;&gt;&lt;span&gt;&amp;nbsp;&lt;/span&gt;[&lt;/span&gt;&lt;/div&gt;&lt;div style=&quot;border-color: var(--border-color); color: rgb(204, 204, 204); font-family: Menlo, Monaco, &amp;quot;Courier New&amp;quot;, monospace; font-size: 12px; font-style: normal; font-variant-ligatures: normal; font-variant-caps: normal; font-weight: 400; letter-spacing: normal; orphans: 2; text-align: left; text-indent: 0px; text-transform: none; widows: 2; word-spacing: 0px; -webkit-text-stroke-width: 0px; text-decoration-thickness: initial; text-decoration-style: initial; text-decoration-color: initial;&quot;&gt;&lt;span style=&quot;border-color: var(--border-color); color: rgb(204, 204, 204);&quot;&gt;{&lt;/span&gt;&lt;/div&gt;&lt;div style=&quot;border-color: var(--border-color); color: rgb(204, 204, 204); font-family: Menlo, Monaco, &amp;quot;Courier New&amp;quot;, monospace; font-size: 12px; font-style: normal; font-variant-ligatures: normal; font-variant-caps: normal; font-weight: 400; letter-spacing: normal; orphans: 2; text-align: left; text-indent: 0px; text-transform: none; widows: 2; word-spacing: 0px; -webkit-text-stroke-width: 0px; text-decoration-thickness: initial; text-decoration-style: initial; text-decoration-color: initial;&quot;&gt;&lt;span style=&quot;border-color: var(--border-color); color: rgb(204, 204, 204);&quot;&gt;&lt;/span&gt;&lt;span style=&quot;border-color: var(--border-color); color: rgb(156, 220, 254);&quot;&gt;id&lt;/span&gt;&lt;span style=&quot;border-color: var(--border-color); color: rgb(156, 220, 254);&quot;&gt;:&lt;/span&gt;&lt;span style=&quot;border-color: var(--border-color); color: rgb(204, 204, 204);&quot;&gt;&lt;span&gt;&amp;nbsp;&lt;/span&gt;&lt;/span&gt;&lt;span style=&quot;border-color: var(--border-color); color: rgb(220, 220, 170);&quot;&gt;uuidv4&lt;/span&gt;&lt;span style=&quot;border-color: var(--border-color); color: rgb(204, 204, 204);&quot;&gt;(),&lt;/span&gt;&lt;/div&gt;&lt;div style=&quot;border-color: var(--border-color); color: rgb(204, 204, 204); font-family: Menlo, Monaco, &amp;quot;Courier New&amp;quot;, monospace; font-size: 12px; font-style: normal; font-variant-ligatures: normal; font-variant-caps: normal; font-weight: 400; letter-spacing: normal; orphans: 2; text-align: left; text-indent: 0px; text-transform: none; widows: 2; word-spacing: 0px; -webkit-text-stroke-width: 0px; text-decoration-thickness: initial; text-decoration-style: initial; text-decoration-color: initial;&quot;&gt;&lt;span style=&quot;border-color: var(--border-color); color: rgb(204, 204, 204);&quot;&gt;&lt;/span&gt;&lt;span style=&quot;border-color: var(--border-color); color: rgb(156, 220, 254);&quot;&gt;universityName&lt;/span&gt;&lt;span style=&quot;border-color: var(--border-color); color: rgb(156, 220, 254);&quot;&gt;:&lt;/span&gt;&lt;span style=&quot;border-color: var(--border-color); color: rgb(204, 204, 204);&quot;&gt;&lt;span&gt;&amp;nbsp;&lt;/span&gt;&lt;/span&gt;&lt;span style=&quot;border-color: var(--border-color); color: rgb(206, 145, 120);&quot;&gt;&quot;&quot;&lt;/span&gt;&lt;span style=&quot;border-color: var(--border-color); color: rgb(204, 204, 204);&quot;&gt;,&lt;/span&gt;&lt;/div&gt;&lt;div style=&quot;border-color: var(--border-color); color: rgb(204, 204, 204); font-family: Menlo, Monaco, &amp;quot;Courier New&amp;quot;, monospace; font-size: 12px; font-style: normal; font-variant-ligatures: normal; font-variant-caps: normal; font-weight: 400; letter-spacing: normal; orphans: 2; text-align: left; text-indent: 0px; text-transform: none; widows: 2; word-spacing: 0px; -webkit-text-stroke-width: 0px; text-decoration-thickness: initial; text-decoration-style: initial; text-decoration-color: initial;&quot;&gt;&lt;span style=&quot;border-color: var(--border-color); color: rgb(204, 204, 204);&quot;&gt;&lt;/span&gt;&lt;span style=&quot;border-color: var(--border-color); color: rgb(156, 220, 254);&quot;&gt;city&lt;/span&gt;&lt;span style=&quot;border-color: var(--border-color); color: rgb(156, 220, 254);&quot;&gt;:&lt;/span&gt;&lt;span style=&quot;border-color: var(--border-color); color: rgb(204, 204, 204);&quot;&gt;&lt;span&gt;&amp;nbsp;&lt;/span&gt;&lt;/span&gt;&lt;span style=&quot;border-color: var(--border-color); color: rgb(206, 145, 120);&quot;&gt;&quot;&quot;&lt;/span&gt;&lt;span style=&quot;border-color: var(--border-color); color: rgb(204, 204, 204);&quot;&gt;,&lt;/span&gt;&lt;/div&gt;&lt;div style=&quot;border-color: var(--border-color); color: rgb(204, 204, 204); font-family: Menlo, Monaco, &amp;quot;Courier New&amp;quot;, monospace; font-size: 12px; font-style: normal; font-variant-ligatures: normal; font-variant-caps: normal; font-weight: 400; letter-spacing: normal; orphans: 2; text-align: left; text-indent: 0px; text-transform: none; widows: 2; word-spacing: 0px; -webkit-text-stroke-width: 0px; text-decoration-thickness: initial; text-decoration-style: initial; text-decoration-color: initial;&quot;&gt;&lt;span style=&quot;border-color: var(--border-color); color: rgb(204, 204, 204);&quot;&gt;&lt;/span&gt;&lt;span style=&quot;border-color: var(--border-color); color: rgb(156, 220, 254);&quot;&gt;degree&lt;/span&gt;&lt;span style=&quot;border-color: var(--border-color); color: rgb(156, 220, 254);&quot;&gt;:&lt;/span&gt;&lt;span style=&quot;border-color: var(--border-color); color: rgb(204, 204, 204);&quot;&gt;&lt;span&gt;&amp;nbsp;&lt;/span&gt;&lt;/span&gt;&lt;span style=&quot;border-color: var(--border-color); color: rgb(206, 145, 120);&quot;&gt;&quot;&quot;&lt;/span&gt;&lt;span style=&quot;border-color: var(--border-color); color: rgb(204, 204, 204);&quot;&gt;,&lt;/span&gt;&lt;/div&gt;&lt;div style=&quot;border-color: var(--border-color); color: rgb(204, 204, 204); font-family: Menlo, Monaco, &amp;quot;Courier New&amp;quot;, monospace; font-size: 12px; font-style: normal; font-variant-ligatures: normal; font-variant-caps: normal; font-weight: 400; letter-spacing: normal; orphans: 2; text-align: left; text-indent: 0px; text-transform: none; widows: 2; word-spacing: 0px; -webkit-text-stroke-width: 0px; text-decoration-thickness: initial; text-decoration-style: initial; text-decoration-color: initial;&quot;&gt;&lt;span style=&quot;border-color: var(--border-color); color: rgb(204, 204, 204);&quot;&gt;&lt;/span&gt;&lt;span style=&quot;border-color: var(--border-color); color: rgb(156, 220, 254);&quot;&gt;subject&lt;/span&gt;&lt;span style=&quot;border-color: var(--border-color); color: rgb(156, 220, 254);&quot;&gt;:&lt;/span&gt;&lt;span style=&quot;border-color: var(--border-color); color: rgb(204, 204, 204);&quot;&gt;&lt;span&gt;&amp;nbsp;&lt;/span&gt;&lt;/span&gt;&lt;span style=&quot;border-color: var(--border-color); color: rgb(206, 145, 120);&quot;&gt;&quot;&quot;&lt;/span&gt;&lt;span style=&quot;border-color: var(--border-color); color: rgb(204, 204, 204);&quot;&gt;,&lt;/span&gt;&lt;/div&gt;&lt;div style=&quot;border-color: var(--border-color); color: rgb(204, 204, 204); font-family: Menlo, Monaco, &amp;quot;Courier New&amp;quot;, monospace; font-size: 12px; font-style: normal; font-variant-ligatures: normal; font-variant-caps: normal; font-weight: 400; letter-spacing: normal; orphans: 2; text-align: left; text-indent: 0px; text-transform: none; widows: 2; word-spacing: 0px; -webkit-text-stroke-width: 0px; text-decoration-thickness: initial; text-decoration-style: initial; text-decoration-color: initial;&quot;&gt;&lt;span style=&quot;border-color: var(--border-color); color: rgb(204, 204, 204);&quot;&gt;&lt;/span&gt;&lt;span style=&quot;border-color: var(--border-color); color: rgb(156, 220, 254);&quot;&gt;from&lt;/span&gt;&lt;span style=&quot;border-color: var(--border-color); color: rgb(156, 220, 254);&quot;&gt;:&lt;/span&gt;&lt;span style=&quot;border-color: var(--border-color); color: rgb(204, 204, 204);&quot;&gt;&lt;span&gt;&amp;nbsp;&lt;/span&gt;&lt;/span&gt;&lt;span style=&quot;border-color: var(--border-color); color: rgb(206, 145, 120);&quot;&gt;&quot;&quot;&lt;/span&gt;&lt;span style=&quot;border-color: var(--border-color); color: rgb(204, 204, 204);&quot;&gt;,&lt;/span&gt;&lt;/div&gt;&lt;div style=&quot;border-color: var(--border-color); color: rgb(204, 204, 204); font-family: Menlo, Monaco, &amp;quot;Courier New&amp;quot;, monospace; font-size: 12px; font-style: normal; font-variant-ligatures: normal; font-variant-caps: normal; font-weight: 400; letter-spacing: normal; orphans: 2; text-align: left; text-indent: 0px; text-transform: none; widows: 2; word-spacing: 0px; -webkit-text-stroke-width: 0px; text-decoration-thickness: initial; text-decoration-style: initial; text-decoration-color: initial;&quot;&gt;&lt;span style=&quot;border-color: var(--border-color); color: rgb(204, 204, 204);&quot;&gt;&lt;/span&gt;&lt;span style=&quot;border-color: var(--border-color); color: rgb(156, 220, 254);&quot;&gt;to&lt;/span&gt;&lt;span style=&quot;border-color: var(--border-color); color: rgb(156, 220, 254);&quot;&gt;:&lt;/span&gt;&lt;span style=&quot;border-color: var(--border-color); color: rgb(204, 204, 204);&quot;&gt;&lt;span&gt;&amp;nbsp;&lt;/span&gt;&lt;/span&gt;&lt;span style=&quot;border-color: var(--border-color); color: rgb(206, 145, 120);&quot;&gt;&quot;&quot;&lt;/span&gt;&lt;span style=&quot;border-color: var(--border-color); color: rgb(204, 204, 204);&quot;&gt;,&lt;/span&gt;&lt;/div&gt;&lt;div style=&quot;border-color: var(--border-color); color: rgb(204, 204, 204); font-family: Menlo, Monaco, &amp;quot;Courier New&amp;quot;, monospace; font-size: 12px; font-style: normal; font-variant-ligatures: normal; font-variant-caps: normal; font-weight: 400; letter-spacing: normal; orphans: 2; text-align: left; text-indent: 0px; text-transform: none; widows: 2; word-spacing: 0px; -webkit-text-stroke-width: 0px; text-decoration-thickness: initial; text-decoration-style: initial; text-decoration-color: initial;&quot;&gt;&lt;span style=&quot;border-color: var(--border-color); color: rgb(204, 204, 204);&quot;&gt;},&lt;/span&gt;&lt;/div&gt;&lt;div style=&quot;border-color: var(--border-color); color: rgb(204, 204, 204); font-family: Menlo, Monaco, &amp;quot;Courier New&amp;quot;, monospace; font-size: 12px; font-style: normal; font-variant-ligatures: normal; font-variant-caps: normal; font-weight: 400; letter-spacing: normal; orphans: 2; text-align: left; text-indent: 0px; text-transform: none; widows: 2; word-spacing: 0px; -webkit-text-stroke-width: 0px; text-decoration-thickness: initial; text-decoration-style: initial; text-decoration-color: initial;&quot;&gt;&lt;span style=&quot;border-color: var(--border-color); color: rgb(204, 204, 204);&quot;&gt;],&lt;/span&gt;&lt;/div&gt;&lt;div style=&quot;border-color: var(--border-color); color: rgb(204, 204, 204); font-family: Menlo, Monaco, &amp;quot;Courier New&amp;quot;, monospace; font-size: 12px; font-style: normal; font-variant-ligatures: normal; font-variant-caps: normal; font-weight: 400; letter-spacing: normal; orphans: 2; text-align: left; text-indent: 0px; text-transform: none; widows: 2; word-spacing: 0px; -webkit-text-stroke-width: 0px; text-decoration-thickness: initial; text-decoration-style: initial; text-decoration-color: initial;&quot;&gt;&lt;span style=&quot;border-color: var(--border-color); color: rgb(204, 204, 204);&quot;&gt;};&lt;/span&gt;&lt;/div&gt;" style="rounded=0;whiteSpace=wrap;html=1;" parent="1" vertex="1">
          <mxGeometry x="1790" y="60" width="170" height="510" as="geometry" />
        </mxCell>
        <mxCell id="vL9jdoZXsRcYpbfHNgrs-2" style="edgeStyle=orthogonalEdgeStyle;rounded=0;orthogonalLoop=1;jettySize=auto;html=1;" edge="1" parent="1" source="vL9jdoZXsRcYpbfHNgrs-1" target="TFecB4w0ay9IWsotAcAq-3">
          <mxGeometry relative="1" as="geometry" />
        </mxCell>
        <mxCell id="vL9jdoZXsRcYpbfHNgrs-1" value="MainWrapper Style" style="rounded=0;whiteSpace=wrap;html=1;" vertex="1" parent="1">
          <mxGeometry x="260" y="170" width="120" height="20" as="geometry" />
        </mxCell>
        <mxCell id="vL9jdoZXsRcYpbfHNgrs-6" value="&lt;font style=&quot;font-size: 24px;&quot;&gt;Component&lt;/font&gt;&lt;br&gt;&lt;font style=&quot;&quot;&gt;&lt;span style=&quot;font-weight: bold; font-size: 14px;&quot;&gt;Module imports:&lt;/span&gt;&lt;br&gt;&lt;font style=&quot;font-size: 12px;&quot;&gt;&lt;b&gt;util -&lt;br&gt;&amp;nbsp;custom component -&lt;br&gt;npm package -&lt;/b&gt;&lt;/font&gt;&lt;br&gt;&lt;/font&gt;&lt;br&gt;&lt;font style=&quot;font-size: 14px;&quot;&gt;&lt;b&gt;Props&lt;/b&gt;&lt;/font&gt;:&lt;br&gt;&lt;br&gt;&lt;font style=&quot;font-size: 14px;&quot;&gt;&lt;b&gt;State:&lt;br&gt;&lt;/b&gt;&lt;/font&gt;&lt;br&gt;&lt;font style=&quot;font-size: 14px;&quot;&gt;&lt;b&gt;Handler functions:&lt;br&gt;&lt;/b&gt;&lt;/font&gt;" style="rounded=0;whiteSpace=wrap;html=1;align=center;" vertex="1" parent="1">
          <mxGeometry x="-2200" y="600" width="330" height="190" as="geometry" />
        </mxCell>
        <mxCell id="vL9jdoZXsRcYpbfHNgrs-33" value="&lt;font style=&quot;font-size: 24px;&quot;&gt;Component&lt;/font&gt;&lt;br&gt;&lt;font style=&quot;&quot;&gt;&lt;span style=&quot;font-weight: bold; font-size: 14px;&quot;&gt;Module imports:&lt;/span&gt;&lt;br&gt;&lt;font style=&quot;font-size: 12px;&quot;&gt;&lt;b&gt;util -&lt;br&gt;&amp;nbsp;custom component -&lt;br&gt;npm package -&lt;/b&gt;&lt;/font&gt;&lt;br&gt;&lt;/font&gt;&lt;br&gt;&lt;font style=&quot;font-size: 14px;&quot;&gt;&lt;b&gt;Props&lt;/b&gt;&lt;/font&gt;:&lt;br&gt;&lt;br&gt;&lt;font style=&quot;font-size: 14px;&quot;&gt;&lt;b&gt;State:&lt;br&gt;&lt;/b&gt;&lt;/font&gt;&lt;br&gt;&lt;font style=&quot;font-size: 14px;&quot;&gt;&lt;b&gt;Handler functions:&lt;br&gt;&lt;/b&gt;&lt;/font&gt;" style="rounded=0;whiteSpace=wrap;html=1;align=center;" vertex="1" parent="1">
          <mxGeometry x="2610" y="940" width="330" height="190" as="geometry" />
        </mxCell>
        <mxCell id="vL9jdoZXsRcYpbfHNgrs-76" value="" style="group" vertex="1" connectable="0" parent="1">
          <mxGeometry x="-820" y="670" width="355" height="350" as="geometry" />
        </mxCell>
        <mxCell id="vL9jdoZXsRcYpbfHNgrs-5" value="&lt;font style=&quot;font-size: 24px;&quot;&gt;CVForm (cust)&lt;/font&gt;&lt;br&gt;&lt;font style=&quot;font-size: 14px;&quot;&gt;&lt;b&gt;Module imports:&amp;nbsp;&lt;br&gt;&lt;/b&gt;&lt;span style=&quot;border-color: var(--border-color); font-size: 12px;&quot;&gt;&lt;b&gt;util -&lt;/b&gt;&lt;br&gt;Button&lt;br style=&quot;border-color: var(--border-color);&quot;&gt;&lt;b&gt;&amp;nbsp;custom component -&lt;/b&gt;&lt;br&gt;Personal, Education, Experience&lt;br style=&quot;border-color: var(--border-color);&quot;&gt;&lt;b&gt;npm package -&lt;/b&gt;&lt;/span&gt;&lt;b&gt;&lt;br&gt;&lt;/b&gt;&lt;/font&gt;Styled,&amp;nbsp;&lt;br&gt;&lt;font style=&quot;font-size: 14px;&quot;&gt;&lt;b&gt;Props&lt;/b&gt;&lt;/font&gt;:&lt;br&gt;cv, onChangePersonal, onChangeExperience, onAddExperience, onDeleteExperience, onChangeEducation, onAddEducation, onDeleteEducation, onPrint, onLoadExample, onReset&lt;br&gt;&lt;font style=&quot;font-size: 14px;&quot;&gt;&lt;b&gt;State:&lt;br&gt;&lt;/b&gt;&lt;/font&gt;None&lt;br&gt;&lt;font style=&quot;&quot;&gt;&lt;span style=&quot;font-weight: bold; font-size: 14px;&quot;&gt;Handler functions:&lt;/span&gt;&lt;br&gt;&lt;font style=&quot;font-size: 12px;&quot;&gt;None&lt;/font&gt;&lt;br&gt;&lt;/font&gt;" style="rounded=0;whiteSpace=wrap;html=1;align=center;" vertex="1" parent="vL9jdoZXsRcYpbfHNgrs-76">
          <mxGeometry y="50" width="355" height="300" as="geometry" />
        </mxCell>
        <mxCell id="vL9jdoZXsRcYpbfHNgrs-9" value="CVFormWrapper Style" style="rounded=0;whiteSpace=wrap;html=1;" vertex="1" parent="vL9jdoZXsRcYpbfHNgrs-76">
          <mxGeometry x="140" width="130" height="20" as="geometry" />
        </mxCell>
        <mxCell id="vL9jdoZXsRcYpbfHNgrs-13" style="edgeStyle=orthogonalEdgeStyle;rounded=0;orthogonalLoop=1;jettySize=auto;html=1;exitX=0.5;exitY=1;exitDx=0;exitDy=0;entryX=0.573;entryY=0.006;entryDx=0;entryDy=0;entryPerimeter=0;" edge="1" parent="vL9jdoZXsRcYpbfHNgrs-76" source="vL9jdoZXsRcYpbfHNgrs-9" target="vL9jdoZXsRcYpbfHNgrs-5">
          <mxGeometry relative="1" as="geometry" />
        </mxCell>
        <mxCell id="vL9jdoZXsRcYpbfHNgrs-83" value="" style="group" vertex="1" connectable="0" parent="1">
          <mxGeometry x="-280" y="180" width="330" height="320" as="geometry" />
        </mxCell>
        <mxCell id="vL9jdoZXsRcYpbfHNgrs-80" value="&lt;font style=&quot;font-size: 24px;&quot;&gt;Header (cust)&lt;/font&gt;&lt;br&gt;&lt;font style=&quot;&quot;&gt;&lt;span style=&quot;font-weight: bold; font-size: 14px;&quot;&gt;Module imports:&lt;/span&gt;&lt;br&gt;&lt;font style=&quot;font-size: 12px;&quot;&gt;&lt;b&gt;util -&lt;br&gt;none&lt;br&gt;&amp;nbsp;custom component -&lt;br&gt;none&lt;br&gt;npm package -&lt;br&gt;&lt;/b&gt;&lt;/font&gt;styled&lt;/font&gt;&lt;br&gt;&lt;font style=&quot;font-size: 14px;&quot;&gt;&lt;b&gt;Props&lt;/b&gt;&lt;/font&gt;:&lt;br&gt;&lt;font style=&quot;&quot;&gt;none&lt;br&gt;&lt;b style=&quot;font-size: 14px;&quot;&gt;State:&lt;/b&gt;&lt;br&gt;&lt;/font&gt;none&lt;br&gt;&lt;font style=&quot;&quot;&gt;&lt;span style=&quot;font-weight: bold; font-size: 14px;&quot;&gt;Handler functions:&lt;/span&gt;&lt;br&gt;&lt;font style=&quot;font-size: 12px;&quot;&gt;none&lt;/font&gt;&lt;br&gt;&lt;/font&gt;" style="rounded=0;whiteSpace=wrap;html=1;align=center;" vertex="1" parent="vL9jdoZXsRcYpbfHNgrs-83">
          <mxGeometry y="40" width="330" height="240" as="geometry" />
        </mxCell>
        <mxCell id="vL9jdoZXsRcYpbfHNgrs-81" value="HeaderContainer, HeaderWrapper" style="rounded=0;whiteSpace=wrap;html=1;" vertex="1" parent="vL9jdoZXsRcYpbfHNgrs-83">
          <mxGeometry x="62" width="206" height="20" as="geometry" />
        </mxCell>
        <mxCell id="vL9jdoZXsRcYpbfHNgrs-82" value="h1 tag" style="rounded=0;whiteSpace=wrap;html=1;" vertex="1" parent="vL9jdoZXsRcYpbfHNgrs-83">
          <mxGeometry x="94" y="300" width="145" height="20" as="geometry" />
        </mxCell>
        <mxCell id="vL9jdoZXsRcYpbfHNgrs-89" value="" style="group" vertex="1" connectable="0" parent="1">
          <mxGeometry x="630" y="190" width="330" height="360" as="geometry" />
        </mxCell>
        <mxCell id="vL9jdoZXsRcYpbfHNgrs-85" value="FooterWrapper style" style="rounded=0;whiteSpace=wrap;html=1;" vertex="1" parent="vL9jdoZXsRcYpbfHNgrs-89">
          <mxGeometry x="62" width="206" height="20" as="geometry" />
        </mxCell>
        <mxCell id="vL9jdoZXsRcYpbfHNgrs-86" value="&lt;font style=&quot;font-size: 24px;&quot;&gt;Footer (cust)&lt;/font&gt;&lt;br&gt;&lt;font style=&quot;&quot;&gt;&lt;span style=&quot;font-weight: bold; font-size: 14px;&quot;&gt;Module imports:&lt;/span&gt;&lt;br&gt;&lt;font style=&quot;font-size: 12px;&quot;&gt;&lt;b&gt;util -&lt;br&gt;none&lt;br&gt;&amp;nbsp;custom component -&lt;br&gt;none&lt;br&gt;npm package -&lt;br&gt;&lt;/b&gt;&lt;/font&gt;styled, FaGithub&lt;/font&gt;&lt;br&gt;&lt;font style=&quot;font-size: 14px;&quot;&gt;&lt;b&gt;Props&lt;/b&gt;&lt;/font&gt;:&lt;br&gt;&lt;font style=&quot;&quot;&gt;none&lt;br&gt;&lt;b style=&quot;font-size: 14px;&quot;&gt;State:&lt;/b&gt;&lt;br&gt;&lt;/font&gt;none&lt;br&gt;&lt;font style=&quot;&quot;&gt;&lt;span style=&quot;font-weight: bold; font-size: 14px;&quot;&gt;Handler functions:&lt;/span&gt;&lt;br&gt;&lt;font style=&quot;font-size: 12px;&quot;&gt;none&lt;/font&gt;&lt;br&gt;&lt;/font&gt;" style="rounded=0;whiteSpace=wrap;html=1;align=center;" vertex="1" parent="vL9jdoZXsRcYpbfHNgrs-89">
          <mxGeometry y="40" width="330" height="240" as="geometry" />
        </mxCell>
        <mxCell id="vL9jdoZXsRcYpbfHNgrs-87" value="Link style" style="rounded=0;whiteSpace=wrap;html=1;" vertex="1" parent="vL9jdoZXsRcYpbfHNgrs-89">
          <mxGeometry x="94" y="300" width="145" height="20" as="geometry" />
        </mxCell>
        <mxCell id="vL9jdoZXsRcYpbfHNgrs-88" value="a tag" style="rounded=0;whiteSpace=wrap;html=1;" vertex="1" parent="vL9jdoZXsRcYpbfHNgrs-89">
          <mxGeometry x="94" y="340" width="145" height="20" as="geometry" />
        </mxCell>
        <mxCell id="vL9jdoZXsRcYpbfHNgrs-91" value="" style="group" vertex="1" connectable="0" parent="1">
          <mxGeometry x="590" y="730" width="1500" height="1119" as="geometry" />
        </mxCell>
        <mxCell id="vL9jdoZXsRcYpbfHNgrs-72" value="" style="group" vertex="1" connectable="0" parent="vL9jdoZXsRcYpbfHNgrs-91">
          <mxGeometry x="780" y="349" width="720" height="770" as="geometry" />
        </mxCell>
        <mxCell id="vL9jdoZXsRcYpbfHNgrs-56" value="&lt;font style=&quot;font-size: 24px;&quot;&gt;Sidebar (cust)&lt;/font&gt;&lt;br&gt;&lt;font style=&quot;&quot;&gt;&lt;span style=&quot;font-weight: bold; font-size: 14px;&quot;&gt;Module imports:&lt;/span&gt;&lt;br&gt;&lt;font style=&quot;font-size: 12px;&quot;&gt;&lt;b&gt;util -&lt;/b&gt;&lt;br&gt;Section, Subsection&lt;br&gt;&lt;b&gt;&amp;nbsp;custom component -&lt;/b&gt;&lt;br&gt;&lt;b&gt;none&lt;/b&gt;&lt;br&gt;&lt;b&gt;npm package -&lt;/b&gt;&lt;/font&gt;&lt;br&gt;&lt;/font&gt;styled&lt;br&gt;&lt;font style=&quot;font-size: 14px;&quot;&gt;&lt;b&gt;Props&lt;/b&gt;&lt;/font&gt;:&lt;br&gt;personalInfo&lt;br&gt;&lt;font style=&quot;font-size: 14px;&quot;&gt;&lt;b&gt;State:&lt;br&gt;&lt;/b&gt;&lt;/font&gt;none&lt;br&gt;&lt;font style=&quot;&quot;&gt;&lt;span style=&quot;font-weight: bold; font-size: 14px;&quot;&gt;Handler functions:&lt;/span&gt;&lt;br&gt;&lt;font style=&quot;font-size: 12px;&quot;&gt;none&lt;/font&gt;&lt;br&gt;&lt;/font&gt;" style="rounded=0;whiteSpace=wrap;html=1;align=center;" vertex="1" parent="vL9jdoZXsRcYpbfHNgrs-72">
          <mxGeometry x="260" y="40" width="330" height="270" as="geometry" />
        </mxCell>
        <mxCell id="vL9jdoZXsRcYpbfHNgrs-59" value="SidebarWrapper Style" style="rounded=0;whiteSpace=wrap;html=1;" vertex="1" parent="vL9jdoZXsRcYpbfHNgrs-72">
          <mxGeometry x="355" width="140" height="20" as="geometry" />
        </mxCell>
        <mxCell id="vL9jdoZXsRcYpbfHNgrs-60" value="img tag" style="rounded=0;whiteSpace=wrap;html=1;" vertex="1" parent="vL9jdoZXsRcYpbfHNgrs-72">
          <mxGeometry x="650" y="440" width="60" height="20" as="geometry" />
        </mxCell>
        <mxCell id="vL9jdoZXsRcYpbfHNgrs-61" value="Photo Style" style="rounded=0;whiteSpace=wrap;html=1;" vertex="1" parent="vL9jdoZXsRcYpbfHNgrs-72">
          <mxGeometry x="640" y="400" width="80" height="20" as="geometry" />
        </mxCell>
        <mxCell id="vL9jdoZXsRcYpbfHNgrs-62" value="&lt;font style=&quot;font-size: 24px;&quot;&gt;Section (util)&lt;/font&gt;&lt;br&gt;&lt;font style=&quot;&quot;&gt;&lt;span style=&quot;font-weight: bold; font-size: 14px;&quot;&gt;Module imports:&lt;/span&gt;&lt;br&gt;&lt;font style=&quot;font-size: 12px;&quot;&gt;&lt;b&gt;util -&lt;br&gt;&amp;nbsp;custom component -&lt;br&gt;npm package -&lt;/b&gt;&lt;/font&gt;&lt;br&gt;&lt;/font&gt;styled, css&lt;br&gt;&lt;font style=&quot;font-size: 14px;&quot;&gt;&lt;b&gt;Props&lt;/b&gt;&lt;/font&gt;:&lt;br&gt;padding, title, children, titlePadding, contrastTitle, direction&lt;br&gt;&lt;font style=&quot;font-size: 14px;&quot;&gt;&lt;b&gt;State:&lt;br&gt;&lt;/b&gt;&lt;/font&gt;none&lt;br&gt;&lt;font style=&quot;&quot;&gt;&lt;b style=&quot;font-size: 14px;&quot;&gt;Handler functions:&lt;/b&gt;&lt;br&gt;&lt;font style=&quot;font-size: 12px;&quot;&gt;none&lt;/font&gt;&lt;br&gt;&lt;/font&gt;" style="rounded=0;whiteSpace=wrap;html=1;align=center;" vertex="1" parent="vL9jdoZXsRcYpbfHNgrs-72">
          <mxGeometry y="440" width="270" height="240" as="geometry" />
        </mxCell>
        <mxCell id="vL9jdoZXsRcYpbfHNgrs-63" value="&lt;font style=&quot;font-size: 24px;&quot;&gt;SubSection (util)&lt;/font&gt;&lt;br&gt;&lt;font style=&quot;&quot;&gt;&lt;span style=&quot;font-weight: bold; font-size: 14px;&quot;&gt;Module imports:&lt;/span&gt;&lt;br&gt;&lt;font style=&quot;font-size: 12px;&quot;&gt;&lt;b&gt;util -&lt;/b&gt;&lt;br&gt;none&lt;br&gt;&lt;b&gt;&amp;nbsp;custom component -&lt;/b&gt;&lt;br&gt;none&lt;br&gt;&lt;b&gt;npm package -&lt;/b&gt;&lt;br&gt;&lt;/font&gt;styled&lt;/font&gt;&lt;br&gt;&lt;font style=&quot;font-size: 14px;&quot;&gt;&lt;b&gt;Props&lt;/b&gt;&lt;/font&gt;:&lt;br&gt;title, children, titlePadding&lt;br&gt;&lt;font style=&quot;font-size: 14px;&quot;&gt;&lt;b&gt;State:&lt;br&gt;&lt;/b&gt;&lt;/font&gt;&lt;font style=&quot;&quot;&gt;&lt;font style=&quot;font-size: 12px;&quot;&gt;none&lt;/font&gt;&lt;br&gt;&lt;span style=&quot;font-weight: bold; font-size: 14px;&quot;&gt;Handler functions:&lt;br&gt;&lt;/span&gt;none&lt;br&gt;&lt;/font&gt;" style="rounded=0;whiteSpace=wrap;html=1;align=center;" vertex="1" parent="vL9jdoZXsRcYpbfHNgrs-72">
          <mxGeometry x="280" y="440" width="270" height="240" as="geometry" />
        </mxCell>
        <mxCell id="vL9jdoZXsRcYpbfHNgrs-64" value="SectionWrapper Style" style="rounded=0;whiteSpace=wrap;html=1;" vertex="1" parent="vL9jdoZXsRcYpbfHNgrs-72">
          <mxGeometry x="65" y="400" width="140" height="20" as="geometry" />
        </mxCell>
        <mxCell id="vL9jdoZXsRcYpbfHNgrs-65" value="SubSectionWrapper Style" style="rounded=0;whiteSpace=wrap;html=1;" vertex="1" parent="vL9jdoZXsRcYpbfHNgrs-72">
          <mxGeometry x="350" y="400" width="140" height="20" as="geometry" />
        </mxCell>
        <mxCell id="vL9jdoZXsRcYpbfHNgrs-66" value="h3 tag" style="rounded=0;whiteSpace=wrap;html=1;" vertex="1" parent="vL9jdoZXsRcYpbfHNgrs-72">
          <mxGeometry x="40" y="750" width="60" height="20" as="geometry" />
        </mxCell>
        <mxCell id="vL9jdoZXsRcYpbfHNgrs-67" value="Title Style" style="rounded=0;whiteSpace=wrap;html=1;" vertex="1" parent="vL9jdoZXsRcYpbfHNgrs-72">
          <mxGeometry x="30" y="710" width="80" height="20" as="geometry" />
        </mxCell>
        <mxCell id="vL9jdoZXsRcYpbfHNgrs-68" value="div tag" style="rounded=0;whiteSpace=wrap;html=1;" vertex="1" parent="vL9jdoZXsRcYpbfHNgrs-72">
          <mxGeometry x="160" y="750" width="60" height="20" as="geometry" />
        </mxCell>
        <mxCell id="vL9jdoZXsRcYpbfHNgrs-69" value="Children Style" style="rounded=0;whiteSpace=wrap;html=1;" vertex="1" parent="vL9jdoZXsRcYpbfHNgrs-72">
          <mxGeometry x="150" y="710" width="80" height="20" as="geometry" />
        </mxCell>
        <mxCell id="vL9jdoZXsRcYpbfHNgrs-70" value="h4 tag" style="rounded=0;whiteSpace=wrap;html=1;" vertex="1" parent="vL9jdoZXsRcYpbfHNgrs-72">
          <mxGeometry x="320" y="750" width="60" height="20" as="geometry" />
        </mxCell>
        <mxCell id="vL9jdoZXsRcYpbfHNgrs-71" value="Title Style" style="rounded=0;whiteSpace=wrap;html=1;" vertex="1" parent="vL9jdoZXsRcYpbfHNgrs-72">
          <mxGeometry x="310" y="710" width="80" height="20" as="geometry" />
        </mxCell>
        <mxCell id="vL9jdoZXsRcYpbfHNgrs-77" value="" style="group" vertex="1" connectable="0" parent="vL9jdoZXsRcYpbfHNgrs-91">
          <mxGeometry x="470" width="330" height="290" as="geometry" />
        </mxCell>
        <mxCell id="vL9jdoZXsRcYpbfHNgrs-8" value="&lt;font style=&quot;&quot;&gt;&lt;span style=&quot;font-size: 24px;&quot;&gt;CVPreview (cust)&lt;br&gt;&lt;/span&gt;&lt;b style=&quot;font-size: 14px;&quot;&gt;Module imports:&lt;br&gt;&lt;/b&gt;&lt;span style=&quot;border-color: var(--border-color);&quot;&gt;&lt;b&gt;util -&lt;br&gt;&lt;/b&gt;none&lt;br style=&quot;border-color: var(--border-color);&quot;&gt;&lt;b&gt;&amp;nbsp;custom component -&lt;/b&gt;&lt;br&gt;Header, Content, Sidebar&lt;br style=&quot;border-color: var(--border-color);&quot;&gt;&lt;b&gt;npm package -&lt;/b&gt;&lt;/span&gt;&lt;b style=&quot;font-size: 14px;&quot;&gt;&amp;nbsp;&lt;br&gt;&lt;/b&gt;&lt;/font&gt;Styled&lt;br&gt;&lt;font style=&quot;font-size: 14px;&quot;&gt;&lt;b&gt;Props&lt;/b&gt;&lt;/font&gt;:&lt;br&gt;cv&lt;br&gt;&lt;font style=&quot;font-size: 14px;&quot;&gt;&lt;b&gt;State:&lt;br&gt;&lt;/b&gt;&lt;/font&gt;None&lt;br&gt;&lt;font style=&quot;&quot;&gt;&lt;span style=&quot;font-weight: bold; font-size: 14px;&quot;&gt;Handler functions:&lt;/span&gt;&lt;br&gt;&lt;font style=&quot;font-size: 12px;&quot;&gt;None&lt;/font&gt;&lt;br&gt;&lt;/font&gt;" style="rounded=0;whiteSpace=wrap;html=1;align=center;" vertex="1" parent="vL9jdoZXsRcYpbfHNgrs-77">
          <mxGeometry y="50" width="330" height="240" as="geometry" />
        </mxCell>
        <mxCell id="vL9jdoZXsRcYpbfHNgrs-14" style="edgeStyle=orthogonalEdgeStyle;rounded=0;orthogonalLoop=1;jettySize=auto;html=1;exitX=0.5;exitY=1;exitDx=0;exitDy=0;entryX=0.5;entryY=0;entryDx=0;entryDy=0;" edge="1" parent="vL9jdoZXsRcYpbfHNgrs-77" source="vL9jdoZXsRcYpbfHNgrs-10" target="vL9jdoZXsRcYpbfHNgrs-8">
          <mxGeometry relative="1" as="geometry" />
        </mxCell>
        <mxCell id="vL9jdoZXsRcYpbfHNgrs-10" value="CVPreviewWrapper Style" style="rounded=0;whiteSpace=wrap;html=1;" vertex="1" parent="vL9jdoZXsRcYpbfHNgrs-77">
          <mxGeometry x="95" width="140" height="20" as="geometry" />
        </mxCell>
        <mxCell id="vL9jdoZXsRcYpbfHNgrs-78" value="" style="group" vertex="1" connectable="0" parent="vL9jdoZXsRcYpbfHNgrs-91">
          <mxGeometry y="370" width="330" height="360" as="geometry" />
        </mxCell>
        <mxCell id="vL9jdoZXsRcYpbfHNgrs-54" value="&lt;font style=&quot;font-size: 24px;&quot;&gt;Header (cust)&lt;/font&gt;&lt;br&gt;&lt;font style=&quot;&quot;&gt;&lt;span style=&quot;font-weight: bold; font-size: 14px;&quot;&gt;Module imports:&lt;/span&gt;&lt;br&gt;&lt;font style=&quot;font-size: 12px;&quot;&gt;&lt;b&gt;util -&lt;/b&gt;&lt;br&gt;none&lt;br&gt;&lt;b&gt;&amp;nbsp;custom component -&lt;/b&gt;&lt;br&gt;none&lt;br&gt;&lt;b&gt;npm package -&lt;/b&gt;&lt;br&gt;&lt;/font&gt;styled&lt;/font&gt;&lt;br&gt;&lt;font style=&quot;font-size: 14px;&quot;&gt;&lt;b&gt;Props&lt;/b&gt;&lt;/font&gt;:&lt;br&gt;personalInfo&lt;br&gt;&lt;font style=&quot;font-size: 14px;&quot;&gt;&lt;b&gt;State:&lt;br&gt;&lt;/b&gt;&lt;/font&gt;none&lt;br&gt;&lt;font style=&quot;&quot;&gt;&lt;b style=&quot;font-size: 14px;&quot;&gt;Handler functions:&lt;/b&gt;&lt;br&gt;&lt;font style=&quot;font-size: 12px;&quot;&gt;none&lt;/font&gt;&lt;br&gt;&lt;/font&gt;" style="rounded=0;whiteSpace=wrap;html=1;align=center;" vertex="1" parent="vL9jdoZXsRcYpbfHNgrs-78">
          <mxGeometry y="40" width="330" height="250" as="geometry" />
        </mxCell>
        <mxCell id="vL9jdoZXsRcYpbfHNgrs-57" value="CVHeaderWrapper Style" style="rounded=0;whiteSpace=wrap;html=1;" vertex="1" parent="vL9jdoZXsRcYpbfHNgrs-78">
          <mxGeometry x="95" width="140" height="20" as="geometry" />
        </mxCell>
        <mxCell id="vL9jdoZXsRcYpbfHNgrs-75" value="h1, p tag" style="rounded=0;whiteSpace=wrap;html=1;" vertex="1" parent="vL9jdoZXsRcYpbfHNgrs-78">
          <mxGeometry x="135" y="340" width="60" height="20" as="geometry" />
        </mxCell>
        <mxCell id="vL9jdoZXsRcYpbfHNgrs-79" value="" style="group" vertex="1" connectable="0" parent="vL9jdoZXsRcYpbfHNgrs-91">
          <mxGeometry x="410" y="370" width="330" height="410" as="geometry" />
        </mxCell>
        <mxCell id="vL9jdoZXsRcYpbfHNgrs-55" value="&lt;font style=&quot;font-size: 24px;&quot;&gt;Content (cust)&lt;/font&gt;&lt;br&gt;&lt;font style=&quot;&quot;&gt;&lt;span style=&quot;font-weight: bold; font-size: 14px;&quot;&gt;Module imports:&lt;/span&gt;&lt;br&gt;&lt;font style=&quot;font-size: 12px;&quot;&gt;&lt;b&gt;util -&lt;br&gt;Section&lt;br&gt;&amp;nbsp;custom component -&lt;br&gt;ExperienceItem, EducationItem&lt;br&gt;npm package -&lt;br&gt;&lt;/b&gt;&lt;/font&gt;Styled&lt;/font&gt;&lt;br&gt;&lt;font style=&quot;font-size: 14px;&quot;&gt;&lt;b&gt;Props&lt;/b&gt;&lt;/font&gt;:&lt;br&gt;personalInfo, experience, education&lt;br&gt;&lt;font style=&quot;font-size: 14px;&quot;&gt;&lt;b&gt;State:&lt;br&gt;&lt;/b&gt;&lt;/font&gt;none&lt;br&gt;&lt;font style=&quot;&quot;&gt;&lt;span style=&quot;font-weight: bold; font-size: 14px;&quot;&gt;Handler functions:&lt;/span&gt;&lt;br&gt;&lt;font style=&quot;font-size: 12px;&quot;&gt;none&lt;/font&gt;&lt;br&gt;&lt;/font&gt;" style="rounded=0;whiteSpace=wrap;html=1;align=center;" vertex="1" parent="vL9jdoZXsRcYpbfHNgrs-79">
          <mxGeometry y="40" width="330" height="270" as="geometry" />
        </mxCell>
        <mxCell id="vL9jdoZXsRcYpbfHNgrs-58" value="ContentWrapper &amp;amp; Desscription Style" style="rounded=0;whiteSpace=wrap;html=1;" vertex="1" parent="vL9jdoZXsRcYpbfHNgrs-79">
          <mxGeometry x="59.5" width="211" height="20" as="geometry" />
        </mxCell>
        <mxCell id="vL9jdoZXsRcYpbfHNgrs-73" value="div tag" style="rounded=0;whiteSpace=wrap;html=1;" vertex="1" parent="vL9jdoZXsRcYpbfHNgrs-79">
          <mxGeometry x="135" y="390" width="60" height="20" as="geometry" />
        </mxCell>
        <mxCell id="vL9jdoZXsRcYpbfHNgrs-74" value="Description Style" style="rounded=0;whiteSpace=wrap;html=1;" vertex="1" parent="vL9jdoZXsRcYpbfHNgrs-79">
          <mxGeometry x="110" y="350" width="110" height="20" as="geometry" />
        </mxCell>
        <mxCell id="vL9jdoZXsRcYpbfHNgrs-19" value="&lt;font style=&quot;font-size: 24px;&quot;&gt;Personal (cust)&lt;/font&gt;&lt;br&gt;&lt;font style=&quot;&quot;&gt;&lt;span style=&quot;font-weight: bold; font-size: 14px;&quot;&gt;Module imports:&lt;/span&gt;&lt;br&gt;&lt;font style=&quot;font-size: 12px;&quot;&gt;&lt;b&gt;util -&lt;br&gt;&lt;/b&gt;Input, Section, TextArea, FileInput&lt;b&gt;&lt;br&gt;&amp;nbsp;custom component -&lt;br&gt;npm package -&lt;/b&gt;&lt;/font&gt;&lt;br&gt;&lt;/font&gt;none&lt;br&gt;&lt;font style=&quot;font-size: 14px;&quot;&gt;&lt;b&gt;Props&lt;/b&gt;&lt;/font&gt;:&lt;br&gt;personalInfo, onChange&lt;br&gt;&lt;font style=&quot;font-size: 14px;&quot;&gt;&lt;b&gt;State:&lt;br&gt;&lt;/b&gt;&lt;/font&gt;none&lt;br&gt;&lt;font style=&quot;&quot;&gt;&lt;b style=&quot;font-size: 14px;&quot;&gt;Handler functions:&lt;/b&gt;&lt;br&gt;&lt;font style=&quot;font-size: 12px;&quot;&gt;none&lt;/font&gt;&lt;br&gt;&lt;/font&gt;" style="rounded=0;whiteSpace=wrap;html=1;align=center;" vertex="1" parent="1">
          <mxGeometry x="-2480" y="1162" width="330" height="240" as="geometry" />
        </mxCell>
        <mxCell id="vL9jdoZXsRcYpbfHNgrs-20" value="&lt;font style=&quot;font-size: 24px;&quot;&gt;Experience (cust)&lt;/font&gt;&lt;br&gt;&lt;font style=&quot;&quot;&gt;&lt;span style=&quot;font-weight: bold; font-size: 14px;&quot;&gt;Module imports:&lt;/span&gt;&lt;br&gt;&lt;font style=&quot;font-size: 12px;&quot;&gt;&lt;b&gt;util -&lt;/b&gt;&lt;br&gt;Section, Button&lt;br&gt;&lt;b&gt;&amp;nbsp;custom component -&lt;br&gt;&lt;/b&gt;ExperienceItem&lt;br&gt;&lt;b&gt;npm package -&lt;/b&gt;&lt;/font&gt;&lt;br&gt;&lt;/font&gt;none&lt;br&gt;&lt;font style=&quot;font-size: 14px;&quot;&gt;&lt;b&gt;Props&lt;/b&gt;&lt;/font&gt;:&lt;br&gt;experience, onChange, onAdd, onDelete&lt;br&gt;&lt;font style=&quot;font-size: 14px;&quot;&gt;&lt;b&gt;State:&lt;br&gt;&lt;/b&gt;&lt;/font&gt;none&lt;br&gt;&lt;font style=&quot;&quot;&gt;&lt;b style=&quot;font-size: 14px;&quot;&gt;Handler functions:&lt;/b&gt;&lt;br&gt;&lt;font style=&quot;font-size: 12px;&quot;&gt;none&lt;/font&gt;&lt;br&gt;&lt;/font&gt;" style="rounded=0;whiteSpace=wrap;html=1;align=center;" vertex="1" parent="1">
          <mxGeometry x="-1530" y="1160" width="330" height="238" as="geometry" />
        </mxCell>
        <mxCell id="vL9jdoZXsRcYpbfHNgrs-21" value="&lt;font style=&quot;font-size: 24px;&quot;&gt;Education (cust)&lt;/font&gt;&lt;br&gt;&lt;font style=&quot;&quot;&gt;&lt;span style=&quot;font-weight: bold; font-size: 14px;&quot;&gt;Module imports:&lt;/span&gt;&lt;br&gt;&lt;font style=&quot;font-size: 12px;&quot;&gt;&lt;b&gt;util -&lt;/b&gt;&lt;br&gt;Section, Button&lt;br&gt;&lt;b&gt;&amp;nbsp;custom component -&lt;/b&gt;&lt;br&gt;EducationItem&lt;br&gt;&lt;b&gt;npm package -&lt;/b&gt;&lt;/font&gt;&lt;br&gt;&lt;/font&gt;none&lt;br&gt;&lt;font style=&quot;font-size: 14px;&quot;&gt;&lt;b&gt;Props&lt;/b&gt;&lt;/font&gt;:&lt;br&gt;&lt;font style=&quot;&quot;&gt;&lt;font style=&quot;font-size: 12px;&quot;&gt;education, onChange, onAdd, onDelete&lt;/font&gt;&lt;br&gt;&lt;span style=&quot;font-weight: bold; font-size: 14px;&quot;&gt;State:&lt;/span&gt;&lt;br&gt;&lt;/font&gt;none&lt;br&gt;&lt;font style=&quot;&quot;&gt;&lt;span style=&quot;font-weight: bold; font-size: 14px;&quot;&gt;Handler functions:&lt;/span&gt;&lt;br&gt;&lt;font style=&quot;font-size: 12px;&quot;&gt;none&lt;/font&gt;&lt;br&gt;&lt;/font&gt;" style="rounded=0;whiteSpace=wrap;html=1;align=center;" vertex="1" parent="1">
          <mxGeometry x="-980" y="1162" width="330" height="238" as="geometry" />
        </mxCell>
        <mxCell id="vL9jdoZXsRcYpbfHNgrs-22" value="&lt;font style=&quot;font-size: 24px;&quot;&gt;Button (util)&amp;nbsp;&lt;/font&gt;&lt;br&gt;&lt;font style=&quot;&quot;&gt;&lt;span style=&quot;font-weight: bold; font-size: 14px;&quot;&gt;Module imports:&lt;/span&gt;&lt;br&gt;&lt;font style=&quot;font-size: 12px;&quot;&gt;&lt;b&gt;util -&lt;/b&gt;&lt;br&gt;none&lt;br&gt;&lt;b&gt;&amp;nbsp;custom component -&lt;/b&gt;&lt;br&gt;none&lt;br&gt;&lt;b&gt;npm package -&lt;/b&gt;&lt;br&gt;&lt;/font&gt;Stlyled&lt;/font&gt;&lt;br&gt;&lt;font style=&quot;font-size: 14px;&quot;&gt;&lt;b&gt;Props&lt;/b&gt;&lt;/font&gt;:&lt;br&gt;&lt;font style=&quot;&quot; color=&quot;#ff0000&quot;&gt;text&lt;/font&gt;, &lt;font style=&quot;&quot; color=&quot;#ff0000&quot;&gt;onClick&lt;/font&gt;, &lt;b&gt;&lt;font color=&quot;#ff0000&quot;&gt;primary&lt;/font&gt;&lt;/b&gt;, secondary, red&lt;br&gt;&lt;font style=&quot;font-size: 14px;&quot;&gt;&lt;b&gt;State:&lt;br&gt;&lt;/b&gt;&lt;/font&gt;none&lt;br&gt;&lt;font style=&quot;&quot;&gt;&lt;span style=&quot;font-weight: bold; font-size: 14px;&quot;&gt;Handler functions:&lt;/span&gt;&lt;br&gt;&lt;font style=&quot;font-size: 12px;&quot;&gt;none&lt;/font&gt;&lt;br&gt;&lt;/font&gt;" style="rounded=0;whiteSpace=wrap;html=1;align=center;" vertex="1" parent="1">
          <mxGeometry x="-621" y="1160" width="330" height="240" as="geometry" />
        </mxCell>
        <mxCell id="vL9jdoZXsRcYpbfHNgrs-23" value="ButtonWrapper Style" style="rounded=0;whiteSpace=wrap;html=1;" vertex="1" parent="1">
          <mxGeometry x="-521" y="1120" width="130" height="20" as="geometry" />
        </mxCell>
        <mxCell id="vL9jdoZXsRcYpbfHNgrs-32" value="&lt;font style=&quot;font-size: 24px;&quot;&gt;Button (util)&amp;nbsp;&lt;/font&gt;&lt;br&gt;&lt;font style=&quot;&quot;&gt;&lt;span style=&quot;font-weight: bold; font-size: 14px;&quot;&gt;Module imports:&lt;/span&gt;&lt;br&gt;&lt;font style=&quot;font-size: 12px;&quot;&gt;&lt;b&gt;util -&lt;/b&gt;&lt;br&gt;none&lt;br&gt;&lt;b&gt;&amp;nbsp;custom component -&lt;/b&gt;&lt;br&gt;none&lt;br&gt;&lt;b&gt;npm package -&lt;/b&gt;&lt;br&gt;&lt;/font&gt;Stlyled&lt;/font&gt;&lt;br&gt;&lt;font style=&quot;font-size: 14px;&quot;&gt;&lt;b&gt;Props&lt;/b&gt;&lt;/font&gt;:&lt;br&gt;&lt;font color=&quot;#ff0000&quot;&gt;text&lt;/font&gt;, &lt;font color=&quot;#ff0000&quot;&gt;onClick&lt;/font&gt;, primary, &lt;font color=&quot;#ff0000&quot;&gt;secondary&lt;/font&gt;, red&lt;br&gt;&lt;font style=&quot;font-size: 14px;&quot;&gt;&lt;b&gt;State:&lt;br&gt;&lt;/b&gt;&lt;/font&gt;none&lt;br&gt;&lt;font style=&quot;&quot;&gt;&lt;span style=&quot;font-weight: bold; font-size: 14px;&quot;&gt;Handler functions:&lt;/span&gt;&lt;br&gt;&lt;font style=&quot;font-size: 12px;&quot;&gt;none&lt;/font&gt;&lt;br&gt;&lt;/font&gt;" style="rounded=0;whiteSpace=wrap;html=1;align=center;" vertex="1" parent="1">
          <mxGeometry x="-280" y="1160" width="330" height="240" as="geometry" />
        </mxCell>
        <mxCell id="vL9jdoZXsRcYpbfHNgrs-34" value="&lt;font style=&quot;font-size: 24px;&quot;&gt;Button (util)&amp;nbsp;&lt;/font&gt;&lt;br&gt;&lt;font style=&quot;&quot;&gt;&lt;span style=&quot;font-weight: bold; font-size: 14px;&quot;&gt;Module imports:&lt;/span&gt;&lt;br&gt;&lt;font style=&quot;font-size: 12px;&quot;&gt;&lt;b&gt;util -&lt;/b&gt;&lt;br&gt;none&lt;br&gt;&lt;b&gt;&amp;nbsp;custom component -&lt;/b&gt;&lt;br&gt;none&lt;br&gt;&lt;b&gt;npm package -&lt;/b&gt;&lt;br&gt;&lt;/font&gt;Stlyled&lt;/font&gt;&lt;br&gt;&lt;font style=&quot;font-size: 14px;&quot;&gt;&lt;b&gt;Props&lt;/b&gt;&lt;/font&gt;:&lt;br&gt;&lt;font color=&quot;#ff0000&quot;&gt;text&lt;/font&gt;, &lt;font color=&quot;#ff0000&quot;&gt;onClick&lt;/font&gt;, primary, secondary, &lt;font color=&quot;#ff0000&quot;&gt;red&lt;/font&gt;&lt;br&gt;&lt;font style=&quot;font-size: 14px;&quot;&gt;&lt;b&gt;State:&lt;br&gt;&lt;/b&gt;&lt;/font&gt;none&lt;br&gt;&lt;font style=&quot;&quot;&gt;&lt;span style=&quot;font-weight: bold; font-size: 14px;&quot;&gt;Handler functions:&lt;/span&gt;&lt;br&gt;&lt;font style=&quot;font-size: 12px;&quot;&gt;none&lt;/font&gt;&lt;br&gt;&lt;/font&gt;" style="rounded=0;whiteSpace=wrap;html=1;align=center;" vertex="1" parent="1">
          <mxGeometry x="70" y="1160" width="330" height="240" as="geometry" />
        </mxCell>
        <mxCell id="vL9jdoZXsRcYpbfHNgrs-35" value="ButtonWrapper Style" style="rounded=0;whiteSpace=wrap;html=1;" vertex="1" parent="1">
          <mxGeometry x="-180" y="1120" width="130" height="20" as="geometry" />
        </mxCell>
        <mxCell id="vL9jdoZXsRcYpbfHNgrs-36" value="ButtonWrapper Style" style="rounded=0;whiteSpace=wrap;html=1;" vertex="1" parent="1">
          <mxGeometry x="170" y="1120" width="130" height="20" as="geometry" />
        </mxCell>
        <mxCell id="vL9jdoZXsRcYpbfHNgrs-31" style="edgeStyle=orthogonalEdgeStyle;rounded=0;orthogonalLoop=1;jettySize=auto;html=1;exitX=0.5;exitY=1;exitDx=0;exitDy=0;entryX=0.5;entryY=0;entryDx=0;entryDy=0;" edge="1" parent="1" source="vL9jdoZXsRcYpbfHNgrs-23" target="vL9jdoZXsRcYpbfHNgrs-22">
          <mxGeometry relative="1" as="geometry" />
        </mxCell>
        <mxCell id="vL9jdoZXsRcYpbfHNgrs-39" style="edgeStyle=orthogonalEdgeStyle;rounded=0;orthogonalLoop=1;jettySize=auto;html=1;exitX=0.5;exitY=1;exitDx=0;exitDy=0;entryX=0.5;entryY=0;entryDx=0;entryDy=0;" edge="1" parent="1" source="vL9jdoZXsRcYpbfHNgrs-35" target="vL9jdoZXsRcYpbfHNgrs-32">
          <mxGeometry relative="1" as="geometry" />
        </mxCell>
        <mxCell id="vL9jdoZXsRcYpbfHNgrs-40" style="edgeStyle=orthogonalEdgeStyle;rounded=0;orthogonalLoop=1;jettySize=auto;html=1;exitX=0.5;exitY=1;exitDx=0;exitDy=0;entryX=0.5;entryY=0;entryDx=0;entryDy=0;" edge="1" parent="1" source="vL9jdoZXsRcYpbfHNgrs-36" target="vL9jdoZXsRcYpbfHNgrs-34">
          <mxGeometry relative="1" as="geometry" />
        </mxCell>
        <mxCell id="vL9jdoZXsRcYpbfHNgrs-99" value="" style="group" vertex="1" connectable="0" parent="1">
          <mxGeometry x="-2780" y="1492" width="270" height="370" as="geometry" />
        </mxCell>
        <mxCell id="vL9jdoZXsRcYpbfHNgrs-93" value="&lt;font style=&quot;font-size: 24px;&quot;&gt;Section (util)&lt;/font&gt;&lt;br&gt;&lt;font style=&quot;&quot;&gt;&lt;span style=&quot;font-weight: bold; font-size: 14px;&quot;&gt;Module imports:&lt;/span&gt;&lt;br&gt;&lt;font style=&quot;font-size: 12px;&quot;&gt;&lt;b&gt;util - none&lt;br&gt;&amp;nbsp;custom component - none&lt;br&gt;npm package -&amp;nbsp;&lt;/b&gt;&lt;/font&gt;&lt;/font&gt;styled, css&lt;br&gt;&lt;font style=&quot;font-size: 14px;&quot;&gt;&lt;b&gt;Props&lt;/b&gt;&lt;/font&gt;:&lt;br&gt;padding, title, children, titlePadding, contrastTitle, direction&lt;br&gt;&lt;font style=&quot;font-size: 14px;&quot;&gt;&lt;b&gt;State:&lt;br&gt;&lt;/b&gt;&lt;/font&gt;none&lt;br&gt;&lt;font style=&quot;&quot;&gt;&lt;b style=&quot;font-size: 14px;&quot;&gt;Handler functions:&lt;/b&gt;&lt;br&gt;&lt;font style=&quot;font-size: 12px;&quot;&gt;none&lt;/font&gt;&lt;br&gt;&lt;/font&gt;" style="rounded=0;whiteSpace=wrap;html=1;align=center;" vertex="1" parent="vL9jdoZXsRcYpbfHNgrs-99">
          <mxGeometry y="40" width="270" height="240" as="geometry" />
        </mxCell>
        <mxCell id="vL9jdoZXsRcYpbfHNgrs-94" value="SectionWrapper Style" style="rounded=0;whiteSpace=wrap;html=1;" vertex="1" parent="vL9jdoZXsRcYpbfHNgrs-99">
          <mxGeometry x="65" width="140" height="20" as="geometry" />
        </mxCell>
        <mxCell id="vL9jdoZXsRcYpbfHNgrs-95" value="h3 tag" style="rounded=0;whiteSpace=wrap;html=1;" vertex="1" parent="vL9jdoZXsRcYpbfHNgrs-99">
          <mxGeometry x="40" y="350" width="60" height="20" as="geometry" />
        </mxCell>
        <mxCell id="vL9jdoZXsRcYpbfHNgrs-96" value="Title Style" style="rounded=0;whiteSpace=wrap;html=1;" vertex="1" parent="vL9jdoZXsRcYpbfHNgrs-99">
          <mxGeometry x="30" y="310" width="80" height="20" as="geometry" />
        </mxCell>
        <mxCell id="vL9jdoZXsRcYpbfHNgrs-97" value="div tag" style="rounded=0;whiteSpace=wrap;html=1;" vertex="1" parent="vL9jdoZXsRcYpbfHNgrs-99">
          <mxGeometry x="160" y="350" width="60" height="20" as="geometry" />
        </mxCell>
        <mxCell id="vL9jdoZXsRcYpbfHNgrs-98" value="Children Style" style="rounded=0;whiteSpace=wrap;html=1;" vertex="1" parent="vL9jdoZXsRcYpbfHNgrs-99">
          <mxGeometry x="150" y="310" width="80" height="20" as="geometry" />
        </mxCell>
        <mxCell id="vL9jdoZXsRcYpbfHNgrs-116" value="" style="group" vertex="1" connectable="0" parent="1">
          <mxGeometry x="-2480" y="1532" width="330" height="290" as="geometry" />
        </mxCell>
        <mxCell id="vL9jdoZXsRcYpbfHNgrs-92" value="&lt;font style=&quot;font-size: 24px;&quot;&gt;Input (util)&lt;/font&gt;&lt;br&gt;&lt;font style=&quot;&quot;&gt;&lt;span style=&quot;font-weight: bold; font-size: 14px;&quot;&gt;Module imports:&lt;/span&gt;&lt;br&gt;&lt;font style=&quot;font-size: 12px;&quot;&gt;&lt;b&gt;util - none&lt;br&gt;&amp;nbsp;custom component - none&lt;br&gt;npm package - styled&lt;/b&gt;&lt;/font&gt;&lt;br&gt;&lt;/font&gt;&lt;br&gt;&lt;font style=&quot;font-size: 14px;&quot;&gt;&lt;b&gt;Props&lt;/b&gt;&lt;/font&gt;:&lt;br&gt;type, name, placeholder, onChange, value&lt;br&gt;&lt;br&gt;&lt;font style=&quot;font-size: 14px;&quot;&gt;&lt;b&gt;State: none&lt;br&gt;&lt;/b&gt;&lt;/font&gt;&lt;br&gt;&lt;font style=&quot;font-size: 14px;&quot;&gt;&lt;b&gt;Handler functions: none&lt;br&gt;&lt;/b&gt;&lt;/font&gt;" style="rounded=0;whiteSpace=wrap;html=1;align=center;" vertex="1" parent="vL9jdoZXsRcYpbfHNgrs-116">
          <mxGeometry width="330" height="210" as="geometry" />
        </mxCell>
        <mxCell id="vL9jdoZXsRcYpbfHNgrs-107" value="InputWrapper Style" style="rounded=0;whiteSpace=wrap;html=1;" vertex="1" parent="vL9jdoZXsRcYpbfHNgrs-116">
          <mxGeometry x="95" y="230" width="140" height="20" as="geometry" />
        </mxCell>
        <mxCell id="vL9jdoZXsRcYpbfHNgrs-115" value="input tag" style="rounded=0;whiteSpace=wrap;html=1;" vertex="1" parent="vL9jdoZXsRcYpbfHNgrs-116">
          <mxGeometry x="140" y="270" width="60" height="20" as="geometry" />
        </mxCell>
        <mxCell id="vL9jdoZXsRcYpbfHNgrs-123" value="" style="group" vertex="1" connectable="0" parent="1">
          <mxGeometry x="-2130" y="1532" width="330" height="290" as="geometry" />
        </mxCell>
        <mxCell id="vL9jdoZXsRcYpbfHNgrs-118" value="&lt;font style=&quot;font-size: 24px;&quot;&gt;FileInput (util)&lt;/font&gt;&lt;br&gt;&lt;font style=&quot;&quot;&gt;&lt;span style=&quot;font-weight: bold; font-size: 14px;&quot;&gt;Module imports:&lt;/span&gt;&lt;br&gt;&lt;font style=&quot;font-size: 12px;&quot;&gt;&lt;b&gt;util - none&lt;br&gt;&amp;nbsp;custom component - none&lt;br&gt;npm package - styled&lt;/b&gt;&lt;/font&gt;&lt;br&gt;&lt;/font&gt;&lt;br&gt;&lt;font style=&quot;font-size: 14px;&quot;&gt;&lt;b&gt;Props&lt;/b&gt;&lt;/font&gt;:&lt;br&gt;label, name, onChange&lt;br&gt;&lt;br&gt;&lt;font style=&quot;font-size: 14px;&quot;&gt;&lt;b&gt;State: none&lt;br&gt;&lt;/b&gt;&lt;/font&gt;&lt;br&gt;&lt;font style=&quot;font-size: 14px;&quot;&gt;&lt;b&gt;Handler functions: none&lt;br&gt;&lt;/b&gt;&lt;/font&gt;" style="rounded=0;whiteSpace=wrap;html=1;align=center;" vertex="1" parent="vL9jdoZXsRcYpbfHNgrs-123">
          <mxGeometry width="330" height="210" as="geometry" />
        </mxCell>
        <mxCell id="vL9jdoZXsRcYpbfHNgrs-119" value="FileInputWrapper Style" style="rounded=0;whiteSpace=wrap;html=1;" vertex="1" parent="vL9jdoZXsRcYpbfHNgrs-123">
          <mxGeometry x="20" y="230" width="140" height="20" as="geometry" />
        </mxCell>
        <mxCell id="vL9jdoZXsRcYpbfHNgrs-120" value="input tag" style="rounded=0;whiteSpace=wrap;html=1;" vertex="1" parent="vL9jdoZXsRcYpbfHNgrs-123">
          <mxGeometry x="65" y="270" width="60" height="20" as="geometry" />
        </mxCell>
        <mxCell id="vL9jdoZXsRcYpbfHNgrs-121" value="Label Style" style="rounded=0;whiteSpace=wrap;html=1;" vertex="1" parent="vL9jdoZXsRcYpbfHNgrs-123">
          <mxGeometry x="170" y="230" width="140" height="20" as="geometry" />
        </mxCell>
        <mxCell id="vL9jdoZXsRcYpbfHNgrs-122" value="Label tag" style="rounded=0;whiteSpace=wrap;html=1;" vertex="1" parent="vL9jdoZXsRcYpbfHNgrs-123">
          <mxGeometry x="215" y="270" width="60" height="20" as="geometry" />
        </mxCell>
        <mxCell id="vL9jdoZXsRcYpbfHNgrs-124" value="&lt;font style=&quot;font-size: 24px;&quot;&gt;Experience Item (cust)&lt;/font&gt;&lt;br&gt;&lt;font style=&quot;&quot;&gt;&lt;span style=&quot;font-weight: bold; font-size: 14px;&quot;&gt;Module imports:&lt;/span&gt;&lt;br&gt;&lt;font style=&quot;font-size: 12px;&quot;&gt;&lt;b&gt;util -&lt;br&gt;&amp;nbsp;custom component -&lt;br&gt;npm package -&lt;/b&gt;&lt;/font&gt;&lt;br&gt;&lt;/font&gt;&lt;br&gt;&lt;font style=&quot;font-size: 14px;&quot;&gt;&lt;b&gt;Props&lt;/b&gt;&lt;/font&gt;:&lt;br&gt;&lt;br&gt;&lt;font style=&quot;font-size: 14px;&quot;&gt;&lt;b&gt;State:&lt;br&gt;&lt;/b&gt;&lt;/font&gt;&lt;br&gt;&lt;font style=&quot;font-size: 14px;&quot;&gt;&lt;b&gt;Handler functions:&lt;br&gt;&lt;/b&gt;&lt;/font&gt;" style="rounded=0;whiteSpace=wrap;html=1;align=center;" vertex="1" parent="1">
          <mxGeometry x="-1950" y="1184" width="330" height="190" as="geometry" />
        </mxCell>
      </root>
    </mxGraphModel>
  </diagram>
</mxfile>
